<svg xmlns="http://www.w3.org/2000/svg" width="240" height="120" viewBox="0 0 240 120">
<style>path[fill="none"]{stroke:#000;}</style>
<g class="vf-stavenote" id="vf-auto1149"><g class="vf-notehead" id="vf-auto1152" pointer-events="bounding-box"><path stroke="none" d="M27.419 60.676C27.419 59.187,26.212 57.952,24.696 57.952C23.207 57.952,22 59.187,22 60.676C22 61.518,22.477 62.248,23.095 62.726C23.741 63.175,24.499 63.428,25.285 63.428C25.847 63.428,26.409 63.315,26.858 63.147C27.419 62.978,27.784 62.81,28.318 62.529C28.402 62.501,28.458 62.501,28.515 62.501C28.683 62.501,28.711 62.641,28.711 62.866C28.711 62.978,28.711 63.147,28.683 63.315C28.543 63.905,25.65 71.964,24.92 74.631C24.92 75.109,25.847 75.137,26.072 75.137C26.521 75.137,27.082 75.081,27.504 74.744C27.616 74.66,31.575 60.479,31.575 60.479C31.744 59.749,31.94 59.103,31.996 58.907C31.996 58.485,31.575 58.289,31.491 58.261C31.435 58.261,31.294 58.261,31.07 58.401C30.761 58.654,28.739 61.069,27.419 61.069"></path></g></g><g class="vf-stavenote" id="vf-auto1153"><g class="vf-stem" id="vf-auto1154" pointer-events="bounding-box"><path stroke-width="1.5" fill="none" d="M72.79 67L72.79 97"></path></g><g class="vf-notehead" id="vf-auto1159" pointer-events="bounding-box"><path stroke="none" d="M75.971 70.054C79.566 70.054,83.974 66.741,83.974 63.315C83.974 61.237,82.346 59.946,80.043 59.946C75.606 59.946,72.04 63.231,72.04 66.685C72.04 68.791,73.781 70.054,75.971 70.054"></path></g><path stroke="none" d="M81.756 71.28C82.318 72.965,82.598 74.987,82.598 76.812C82.598 79.199,81.587 82.597,80.97 83.973C79.481 87.37,77.46 90.628,72.04 92.453L72.04 101.972C72.04 102.365,72.377 102.562,72.686 102.562C73.051 102.562,73.585 102.337,73.669 101.663C74.343 97.844,77.347 94.306,79.397 91.133C81.952 87.118,84.424 82.316,84.424 77.262C84.424 74.088,83.609 71.224,83.272 69.933C83.16 69.483,82.907 69.315,82.626 69.315C82.037 69.315,81.335 70.101,81.756 71.28"></path></g><g class="vf-stavenote" id="vf-auto1161"><g class="vf-stem" id="vf-auto1162" pointer-events="bounding-box"><path stroke-width="1.5" fill="none" d="M122.83 67L122.83 100"></path></g><g class="vf-notehead" id="vf-auto1165" pointer-events="bounding-box"><path stroke="none" d="M126.012 70.054C129.606 70.054,134.014 66.741,134.014 63.315C134.014 61.237,132.386 59.946,130.083 59.946C125.647 59.946,122.08 63.231,122.08 66.685C122.08 68.791,123.821 70.054,126.012 70.054"></path></g></g>
</svg>