<svg xmlns="http://www.w3.org/2000/svg" width="240" height="120" viewBox="0 0 240 120">
<style>path[fill="none"]{stroke:#000;}</style>
<g class="vf-stavenote" id="vf-auto1207"><g class="vf-notehead" id="vf-auto1271" pointer-events="bounding-box"><path stroke="none" d="M25.931 70.054C29.525 70.054,33.934 66.741,33.934 63.315C33.934 61.237,32.305 59.946,30.003 59.946C25.566 59.946,22 63.231,22 66.685C22 68.791,23.741 70.054,25.931 70.054"></path></g></g><g class="vf-stavenote" id="vf-auto1215"><g class="vf-notehead" id="vf-auto1273" pointer-events="bounding-box"><path stroke="none" d="M51.894 70.054C55.488 70.054,59.896 66.741,59.896 63.315C59.896 61.237,58.268 59.946,55.965 59.946C51.529 59.946,47.962 63.231,47.962 66.685C47.962 68.791,49.703 70.054,51.894 70.054"></path></g></g><g class="vf-stavenote" id="vf-auto1223"><g class="vf-notehead" id="vf-auto1275" pointer-events="bounding-box"><path stroke="none" d="M77.856 70.054C81.45 70.054,85.859 66.741,85.859 63.315C85.859 61.237,84.23 59.946,81.928 59.946C77.491 59.946,73.925 63.231,73.925 66.685C73.925 68.791,75.666 70.054,77.856 70.054"></path></g></g><g class="vf-stavenote" id="vf-auto1231"><g class="vf-notehead" id="vf-auto1277" pointer-events="bounding-box"><path stroke="none" d="M103.818 70.054C107.413 70.054,111.821 66.741,111.821 63.315C111.821 61.237,110.193 59.946,107.89 59.946C103.453 59.946,99.887 63.231,99.887 66.685C99.887 68.791,101.628 70.054,103.818 70.054"></path></g></g><g class="vf-stavenote" id="vf-auto1239"><g class="vf-notehead" id="vf-auto1279" pointer-events="bounding-box"><path stroke="none" d="M129.781 70.054C133.375 70.054,137.784 66.741,137.784 63.315C137.784 61.237,136.155 59.946,133.852 59.946C129.416 59.946,125.85 63.231,125.85 66.685C125.85 68.791,127.591 70.054,129.781 70.054"></path></g></g><g class="vf-stavenote" id="vf-auto1247"><g class="vf-notehead" id="vf-auto1281" pointer-events="bounding-box"><path stroke="none" d="M155.743 70.054C159.337 70.054,163.746 66.741,163.746 63.315C163.746 61.237,162.117 59.946,159.815 59.946C155.378 59.946,151.812 63.231,151.812 66.685C151.812 68.791,153.553 70.054,155.743 70.054"></path></g></g><g class="vf-stavenote" id="vf-auto1255"><g class="vf-notehead" id="vf-auto1283" pointer-events="bounding-box"><path stroke="none" d="M181.706 70.054C185.3 70.054,189.708 66.741,189.708 63.315C189.708 61.237,188.08 59.946,185.777 59.946C181.341 59.946,177.774 63.231,177.774 66.685C177.774 68.791,179.515 70.054,181.706 70.054"></path></g></g><g class="vf-stavenote" id="vf-auto1263"><g class="vf-notehead" id="vf-auto1285" pointer-events="bounding-box"><path stroke="none" d="M207.668 70.054C211.262 70.054,215.671 66.741,215.671 63.315C215.671 61.237,214.042 59.946,211.74 59.946C207.303 59.946,203.737 63.231,203.737 66.685C203.737 68.791,205.478 70.054,207.668 70.054"></path></g></g><g class="vf-stem" id="vf-auto1208" pointer-events="bounding-box"><path stroke-width="1.5" fill="none" d="M22.75 67L22.75 99.25"></path></g><g class="vf-stem" id="vf-auto1216" pointer-events="bounding-box"><path stroke-width="1.5" fill="none" d="M48.712 67L48.712 99.25"></path></g><g class="vf-stem" id="vf-auto1224" pointer-events="bounding-box"><path stroke-width="1.5" fill="none" d="M74.675 67L74.675 99.25"></path></g><g class="vf-stem" id="vf-auto1232" pointer-events="bounding-box"><path stroke-width="1.5" fill="none" d="M100.637 67L100.637 99.25"></path></g><g class="vf-stem" id="vf-auto1240" pointer-events="bounding-box"><path stroke-width="1.5" fill="none" d="M126.6 67L126.6 99.25"></path></g><g class="vf-stem" id="vf-auto1248" pointer-events="bounding-box"><path stroke-width="1.5" fill="none" d="M152.562 67L152.562 99.25"></path></g><g class="vf-stem" id="vf-auto1256" pointer-events="bounding-box"><path stroke-width="1.5" fill="none" d="M178.524 67L178.524 99.25"></path></g><g class="vf-stem" id="vf-auto1264" pointer-events="bounding-box"><path stroke-width="1.5" fill="none" d="M204.487 67L204.487 99.25"></path></g><g class="vf-beam" id="vf-auto1287"><path stroke="none" d="M22 100L22 95L204.737 95L204.737 100Z"></path><path stroke="none" d="M22 92.5L22 87.5L204.737 87.5L204.737 92.5Z"></path></g>
</svg>