<svg xmlns="http://www.w3.org/2000/svg" width="240" height="120" viewBox="0 0 240 120">
<style>path[fill="none"]{stroke:#000;}</style>
<g class="vf-stavenote" id="vf-auto1365"><g class="vf-notehead" id="vf-auto1371" pointer-events="bounding-box"><path stroke="none" d="M25.931 70.054C29.525 70.054,33.934 66.741,33.934 63.315C33.934 61.237,32.305 59.946,30.003 59.946C25.566 59.946,22 63.231,22 66.685C22 68.791,23.741 70.054,25.931 70.054"></path></g></g><g class="vf-stavenote" id="vf-auto1373"><g class="vf-notehead" id="vf-auto1379" pointer-events="bounding-box"><path stroke="none" d="M59.212 70.054C62.806 70.054,67.214 66.741,67.214 63.315C67.214 61.237,65.586 59.946,63.283 59.946C58.847 59.946,55.28 63.231,55.28 66.685C55.28 68.791,57.021 70.054,59.212 70.054"></path></g></g><g class="vf-stavenote" id="vf-auto1381"><g class="vf-notehead" id="vf-auto1387" pointer-events="bounding-box"><path stroke="none" d="M92.492 70.054C96.086 70.054,100.495 66.741,100.495 63.315C100.495 61.237,98.866 59.946,96.564 59.946C92.127 59.946,88.561 63.231,88.561 66.685C88.561 68.791,90.302 70.054,92.492 70.054"></path></g></g><g class="vf-stavenote" id="vf-auto1389"><g class="vf-notehead" id="vf-auto1395" pointer-events="bounding-box"><path stroke="none" d="M125.773 70.054C129.367 70.054,133.775 66.741,133.775 63.315C133.775 61.237,132.147 59.946,129.844 59.946C125.408 59.946,121.841 63.231,121.841 66.685C121.841 68.791,123.582 70.054,125.773 70.054"></path></g></g><g class="vf-stavenote" id="vf-auto1397"><g class="vf-notehead" id="vf-auto1403" pointer-events="bounding-box"><path stroke="none" d="M159.053 70.054C162.647 70.054,167.056 66.741,167.056 63.315C167.056 61.237,165.427 59.946,163.125 59.946C158.688 59.946,155.122 63.231,155.122 66.685C155.122 68.791,156.863 70.054,159.053 70.054"></path></g></g><g class="vf-stavenote" id="vf-auto1405"><g class="vf-notehead" id="vf-auto1411" pointer-events="bounding-box"><path stroke="none" d="M203.433 70.054C207.028 70.054,211.436 66.741,211.436 63.315C211.436 61.237,209.808 59.946,207.505 59.946C203.068 59.946,199.502 63.231,199.502 66.685C199.502 68.791,201.243 70.054,203.433 70.054"></path></g></g><g class="vf-stem" id="vf-auto1366" pointer-events="bounding-box"><path stroke-width="1.5" fill="none" d="M22.75 67L22.75 99.25"></path></g><g class="vf-stem" id="vf-auto1374" pointer-events="bounding-box"><path stroke-width="1.5" fill="none" d="M56.03 67L56.03 99.25"></path></g><g class="vf-stem" id="vf-auto1382" pointer-events="bounding-box"><path stroke-width="1.5" fill="none" d="M89.311 67L89.311 99.25"></path></g><g class="vf-stem" id="vf-auto1390" pointer-events="bounding-box"><path stroke-width="1.5" fill="none" d="M122.591 67L122.591 99.25"></path></g><g class="vf-stem" id="vf-auto1398" pointer-events="bounding-box"><path stroke-width="1.5" fill="none" d="M155.872 67L155.872 99.25"></path></g><g class="vf-stem" id="vf-auto1406" pointer-events="bounding-box"><path stroke-width="1.5" fill="none" d="M200.252 67L200.252 99.25"></path></g><g class="vf-beam" id="vf-auto1413"><path stroke="none" d="M22 100L22 95L200.502 95L200.502 100Z"></path><path stroke="none" d="M22 92.5L22 87.5L122.841 87.5L122.841 92.5Z"></path></g>
</svg>