<svg xmlns="http://www.w3.org/2000/svg" width="240" height="120" viewBox="0 0 240 120">
<style>path[fill="none"]{stroke:#000;}</style>
<g class="vf-stavenote" id="vf-auto1086"><g class="vf-notehead" id="vf-auto1118" pointer-events="bounding-box"><path stroke="none" d="M25.931 70.054C29.525 70.054,33.934 66.741,33.934 63.315C33.934 61.237,32.305 59.946,30.003 59.946C25.566 59.946,22 63.231,22 66.685C22 68.791,23.741 70.054,25.931 70.054"></path></g></g><g class="vf-stavenote" id="vf-auto1094"><g class="vf-notehead" id="vf-auto1120" pointer-events="bounding-box"><path stroke="none" d="M80.931 70.054C84.525 70.054,88.934 66.741,88.934 63.315C88.934 61.237,87.305 59.946,85.003 59.946C80.566 59.946,77 63.231,77 66.685C77 68.791,78.741 70.054,80.931 70.054"></path></g></g><g class="vf-stavenote" id="vf-auto1102"><g class="vf-notehead" id="vf-auto1122" pointer-events="bounding-box"><path stroke="none" d="M135.931 70.054C139.525 70.054,143.934 66.741,143.934 63.315C143.934 61.237,142.305 59.946,140.003 59.946C135.566 59.946,132 63.231,132 66.685C132 68.791,133.741 70.054,135.931 70.054"></path></g></g><g class="vf-stavenote" id="vf-auto1110"><g class="vf-notehead" id="vf-auto1124" pointer-events="bounding-box"><path stroke="none" d="M190.931 70.054C194.525 70.054,198.934 66.741,198.934 63.315C198.934 61.237,197.305 59.946,195.003 59.946C190.566 59.946,187 63.231,187 66.685C187 68.791,188.741 70.054,190.931 70.054"></path></g></g><g class="vf-stem" id="vf-auto1087" pointer-events="bounding-box"><path stroke-width="1.5" fill="none" d="M22.75 67L22.75 99.25"></path></g><g class="vf-stem" id="vf-auto1095" pointer-events="bounding-box"><path stroke-width="1.5" fill="none" d="M77.75 67L77.75 99.25"></path></g><g class="vf-stem" id="vf-auto1103" pointer-events="bounding-box"><path stroke-width="1.5" fill="none" d="M132.75 67L132.75 99.25"></path></g><g class="vf-stem" id="vf-auto1111" pointer-events="bounding-box"><path stroke-width="1.5" fill="none" d="M187.75 67L187.75 99.25"></path></g><g class="vf-beam" id="vf-auto1126"><path stroke="none" d="M22 100L22 95L188 95L188 100Z"></path></g>
</svg>