<svg xmlns="http://www.w3.org/2000/svg" width="240" height="120" viewBox="0 0 240 120">
<style>path[fill="none"]{stroke:#000;}</style>
<g class="vf-stavenote" id="vf-auto1322"><g class="vf-stem" id="vf-auto1323" pointer-events="bounding-box"><path stroke-width="1.5" fill="none" d="M22.75 67L22.75 100"></path></g><g class="vf-notehead" id="vf-auto1326" pointer-events="bounding-box"><path stroke="none" d="M25.931 70.054C29.525 70.054,33.934 66.741,33.934 63.315C33.934 61.237,32.305 59.946,30.003 59.946C25.566 59.946,22 63.231,22 66.685C22 68.791,23.741 70.054,25.931 70.054"></path></g></g><g class="vf-stavenote" id="vf-auto1327"><g class="vf-notehead" id="vf-auto1343" pointer-events="bounding-box"><path stroke="none" d="M161.121 70.054C164.715 70.054,169.123 66.741,169.123 63.315C169.123 61.237,167.495 59.946,165.192 59.946C160.755 59.946,157.189 63.231,157.189 66.685C157.189 68.791,158.93 70.054,161.121 70.054"></path></g></g><g class="vf-stavenote" id="vf-auto1335"><g class="vf-notehead" id="vf-auto1345" pointer-events="bounding-box"><path stroke="none" d="M203.871 70.054C207.465 70.054,211.874 66.741,211.874 63.315C211.874 61.237,210.245 59.946,207.943 59.946C203.506 59.946,199.94 63.231,199.94 66.685C199.94 68.791,201.681 70.054,203.871 70.054"></path></g></g><g class="vf-stem" id="vf-auto1328" pointer-events="bounding-box"><path stroke-width="1.5" fill="none" d="M157.939 67L157.939 99.25"></path></g><g class="vf-stem" id="vf-auto1336" pointer-events="bounding-box"><path stroke-width="1.5" fill="none" d="M200.69 67L200.69 99.25"></path></g><g class="vf-beam" id="vf-auto1347"><path stroke="none" d="M157.189 100L157.189 95L200.94 95L200.94 100Z"></path><path stroke="none" d="M157.189 92.5L157.189 87.5L200.94 87.5L200.94 92.5Z"></path></g>
</svg>