<svg xmlns="http://www.w3.org/2000/svg" width="240" height="120" viewBox="0 0 240 120">
<style>path[fill="none"]{stroke:#000;}</style>
<g class="vf-stavenote" id="vf-auto1139"><g class="vf-stem" id="vf-auto1140" pointer-events="bounding-box"><path stroke-width="1.5" fill="none" d="M22.75 67L22.75 100"></path></g><g class="vf-notehead" id="vf-auto1143" pointer-events="bounding-box"><path stroke="none" d="M25.931 70.054C29.525 70.054,33.934 66.741,33.934 63.315C33.934 61.237,32.305 59.946,30.003 59.946C25.566 59.946,22 63.231,22 66.685C22 68.791,23.741 70.054,25.931 70.054"></path></g></g><g class="vf-stavenote" id="vf-auto1144"><g class="vf-notehead" id="vf-auto1147" pointer-events="bounding-box"><path stroke="none" d="M120.197 66.544C120.843 67.359,121.433 68.117,121.938 68.959C122.023 69.128,122.191 69.437,122.191 69.521C122.191 69.577,122.191 69.661,122.135 69.689C122.079 69.858,121.91 69.886,121.714 69.886C121.545 69.886,121.208 69.802,121.068 69.774C121.012 69.774,120.928 69.774,120.899 69.774L120.562 69.661C118.456 69.661,117.081 71.543,117.081 73.536C117.081 75.558,118.822 77.524,121.77 79.798C122.107 80.051,122.5 80.163,122.837 80.163C123.118 80.163,123.399 80.079,123.455 79.91C123.483 79.798,123.511 79.714,123.511 79.63C123.511 79.265,123.202 78.956,122.865 78.675C122.36 78.675,121.91 77.58,121.826 77.215C121.714 76.878,121.658 76.513,121.658 76.148C121.658 74.491,122.5 73.199,124.213 73.199C125.392 73.199,126.712 73.649,127.414 73.901L127.442 73.929C127.611 73.986,127.695 73.986,127.779 73.986C127.891 73.986,127.976 73.929,127.976 73.817C127.976 73.34,126.909 71.992,126.487 71.515C124.943 69.661,123.679 68.145,123.679 65.899C123.679 65.842,123.679 65.814,123.679 65.758L123.736 65.477C123.736 65.449,123.736 65.393,123.736 65.365C123.876 63.006,125.336 61.069,126.403 59.412C126.515 59.216,126.544 59.019,126.544 58.822C126.544 58.401,126.403 58.036,126.403 58.036C126.403 58.036,120.422 50.932,119.72 50.23C119.524 50.033,119.243 49.921,118.99 49.921C118.597 49.921,118.176 50.202,118.176 50.763C118.176 50.96,118.232 51.185,118.344 51.409C118.513 51.859,120.815 53.908,120.815 56.829C120.815 58.317,120.197 60.058,118.4 61.967C117.979 62.36,117.811 62.81,117.811 63.147C117.811 63.708,118.232 64.101,118.232 64.101"></path></g></g>
</svg>