<svg xmlns="http://www.w3.org/2000/svg" width="240" height="120" viewBox="0 0 240 120">
<style>path[fill="none"]{stroke:#000;}</style>
<g class="vf-stavenote" id="vf-auto1026"><g class="vf-stem" id="vf-auto1027" pointer-events="bounding-box"><path stroke-width="1.5" fill="none" d="M22.75 67L22.75 100"></path></g><g class="vf-notehead" id="vf-auto1030" pointer-events="bounding-box"><path stroke="none" d="M25.931 70.054C29.525 70.054,33.934 66.741,33.934 63.315C33.934 61.237,32.305 59.946,30.003 59.946C25.566 59.946,22 63.231,22 66.685C22 68.791,23.741 70.054,25.931 70.054"></path></g></g><g class="vf-stavenote" id="vf-auto1031"><g class="vf-notehead" id="vf-auto1037" pointer-events="bounding-box"><path stroke="none" d="M129.476 70.054C133.07 70.054,137.479 66.741,137.479 63.315C137.479 61.237,135.85 59.946,133.548 59.946C129.111 59.946,125.545 63.231,125.545 66.685C125.545 68.791,127.286 70.054,129.476 70.054"></path></g></g><g class="vf-stavenote" id="vf-auto1039"><g class="vf-notehead" id="vf-auto1045" pointer-events="bounding-box"><path stroke="none" d="M187.704 70.054C191.298 70.054,195.706 66.741,195.706 63.315C195.706 61.237,194.078 59.946,191.775 59.946C187.339 59.946,183.772 63.231,183.772 66.685C183.772 68.791,185.513 70.054,187.704 70.054"></path></g></g><g class="vf-stem" id="vf-auto1032" pointer-events="bounding-box"><path stroke-width="1.5" fill="none" d="M126.295 67L126.295 99.25"></path></g><g class="vf-stem" id="vf-auto1040" pointer-events="bounding-box"><path stroke-width="1.5" fill="none" d="M184.522 67L184.522 99.25"></path></g><g class="vf-beam" id="vf-auto1047"><path stroke="none" d="M125.545 100L125.545 95L184.772 95L184.772 100Z"></path></g>
</svg>