<svg xmlns="http://www.w3.org/2000/svg" width="240" height="120" viewBox="0 0 240 120">
<style>path[fill="none"]{stroke:#000;}</style>
<g class="vf-stavenote" id="vf-auto1170"><g class="vf-stem" id="vf-auto1171" pointer-events="bounding-box"><path stroke-width="1.5" fill="none" d="M22.75 67L22.75 100"></path></g><g class="vf-notehead" id="vf-auto1174" pointer-events="bounding-box"><path stroke="none" d="M25.931 70.054C29.525 70.054,33.934 66.741,33.934 63.315C33.934 61.237,32.305 59.946,30.003 59.946C25.566 59.946,22 63.231,22 66.685C22 68.791,23.741 70.054,25.931 70.054"></path></g></g><g class="vf-stavenote" id="vf-auto1175"><g class="vf-notehead" id="vf-auto1178" pointer-events="bounding-box"><path stroke="none" d="M130.964 60.676C130.964 59.187,129.757 57.952,128.241 57.952C126.752 57.952,125.545 59.187,125.545 60.676C125.545 61.518,126.022 62.248,126.64 62.726C127.286 63.175,128.044 63.428,128.83 63.428C129.392 63.428,129.953 63.315,130.403 63.147C130.964 62.978,131.329 62.81,131.863 62.529C131.947 62.501,132.003 62.501,132.059 62.501C132.228 62.501,132.256 62.641,132.256 62.866C132.256 62.978,132.256 63.147,132.228 63.315C132.088 63.905,129.195 71.964,128.465 74.631C128.465 75.109,129.392 75.137,129.616 75.137C130.066 75.137,130.627 75.081,131.049 74.744C131.161 74.66,135.12 60.479,135.12 60.479C135.289 59.749,135.485 59.103,135.541 58.907C135.541 58.485,135.12 58.289,135.036 58.261C134.98 58.261,134.839 58.261,134.615 58.401C134.306 58.654,132.284 61.069,130.964 61.069"></path></g></g><g class="vf-stavenote" id="vf-auto1179"><g class="vf-stem" id="vf-auto1180" pointer-events="bounding-box"><path stroke-width="1.5" fill="none" d="M184.522 67L184.522 97"></path></g><g class="vf-notehead" id="vf-auto1185" pointer-events="bounding-box"><path stroke="none" d="M187.704 70.054C191.298 70.054,195.706 66.741,195.706 63.315C195.706 61.237,194.078 59.946,191.775 59.946C187.339 59.946,183.772 63.231,183.772 66.685C183.772 68.791,185.513 70.054,187.704 70.054"></path></g><path stroke="none" d="M193.488 71.28C194.05 72.965,194.331 74.987,194.331 76.812C194.331 79.199,193.32 82.597,192.702 83.973C191.214 87.37,189.192 90.628,183.772 92.453L183.772 101.972C183.772 102.365,184.109 102.562,184.418 102.562C184.783 102.562,185.317 102.337,185.401 101.663C186.075 97.844,189.08 94.306,191.129 91.133C193.685 87.118,196.156 82.316,196.156 77.262C196.156 74.088,195.341 71.224,195.004 69.933C194.892 69.483,194.639 69.315,194.359 69.315C193.769 69.315,193.067 70.101,193.488 71.28"></path></g>
</svg>