<svg xmlns="http://www.w3.org/2000/svg" width="240" height="120" viewBox="0 0 240 120">
<style>path[fill="none"]{stroke:#000;}</style>
<g class="vf-stavenote" id="vf-auto1052"><g class="vf-notehead" id="vf-auto1058" pointer-events="bounding-box"><path stroke="none" d="M25.931 70.054C29.525 70.054,33.934 66.741,33.934 63.315C33.934 61.237,32.305 59.946,30.003 59.946C25.566 59.946,22 63.231,22 66.685C22 68.791,23.741 70.054,25.931 70.054"></path></g></g><g class="vf-stavenote" id="vf-auto1060"><g class="vf-notehead" id="vf-auto1066" pointer-events="bounding-box"><path stroke="none" d="M75.971 70.054C79.566 70.054,83.974 66.741,83.974 63.315C83.974 61.237,82.346 59.946,80.043 59.946C75.606 59.946,72.04 63.231,72.04 66.685C72.04 68.791,73.781 70.054,75.971 70.054"></path></g></g><g class="vf-stavenote" id="vf-auto1068"><g class="vf-stem" id="vf-auto1069" pointer-events="bounding-box"><path stroke-width="1.5" fill="none" d="M122.83 67L122.83 100"></path></g><g class="vf-notehead" id="vf-auto1072" pointer-events="bounding-box"><path stroke="none" d="M126.012 70.054C129.606 70.054,134.014 66.741,134.014 63.315C134.014 61.237,132.386 59.946,130.083 59.946C125.647 59.946,122.08 63.231,122.08 66.685C122.08 68.791,123.821 70.054,126.012 70.054"></path></g></g><g class="vf-stem" id="vf-auto1053" pointer-events="bounding-box"><path stroke-width="1.5" fill="none" d="M22.75 67L22.75 99.25"></path></g><g class="vf-stem" id="vf-auto1061" pointer-events="bounding-box"><path stroke-width="1.5" fill="none" d="M72.79 67L72.79 99.25"></path></g><g class="vf-beam" id="vf-auto1073"><path stroke="none" d="M22 100L22 95L73.04 95L73.04 100Z"></path></g>
</svg>