<svg xmlns="http://www.w3.org/2000/svg" width="240" height="120" viewBox="0 0 240 120">
<style>path[fill="none"]{stroke:#000;}</style>
<g class="vf-stavenote" id="vf-auto1012"><g class="vf-stem" id="vf-auto1013" pointer-events="bounding-box"><path stroke-width="1.5" fill="none" d="M22.75 67L22.75 100"></path></g><g class="vf-notehead" id="vf-auto1016" pointer-events="bounding-box"><path stroke="none" d="M25.931 70.054C29.525 70.054,33.934 66.741,33.934 63.315C33.934 61.237,32.305 59.946,30.003 59.946C25.566 59.946,22 63.231,22 66.685C22 68.791,23.741 70.054,25.931 70.054"></path></g></g><g class="vf-stavenote" id="vf-auto1017"><g class="vf-stem" id="vf-auto1018" pointer-events="bounding-box"><path stroke-width="1.5" fill="none" d="M117.283 67L117.283 100"></path></g><g class="vf-notehead" id="vf-auto1021" pointer-events="bounding-box"><path stroke="none" d="M120.464 70.054C124.058 70.054,128.467 66.741,128.467 63.315C128.467 61.237,126.838 59.946,124.536 59.946C120.099 59.946,116.533 63.231,116.533 66.685C116.533 68.791,118.274 70.054,120.464 70.054"></path></g></g>
</svg>