<svg xmlns="http://www.w3.org/2000/svg" width="240" height="120" viewBox="0 0 240 120">
<style>path[fill="none"]{stroke:#000;}</style>
<g class="vf-stavenote" id="vf-auto1352"><g class="vf-notehead" id="vf-auto1400" pointer-events="bounding-box"><path stroke="none" d="M25.931 70.054C29.525 70.054,33.934 66.741,33.934 63.315C33.934 61.237,32.305 59.946,30.003 59.946C25.566 59.946,22 63.231,22 66.685C22 68.791,23.741 70.054,25.931 70.054"></path></g></g><g class="vf-stavenote" id="vf-auto1360"><g class="vf-notehead" id="vf-auto1402" pointer-events="bounding-box"><path stroke="none" d="M68.42 70.054C72.014 70.054,76.422 66.741,76.422 63.315C76.422 61.237,74.794 59.946,72.491 59.946C68.055 59.946,64.488 63.231,64.488 66.685C64.488 68.791,66.229 70.054,68.42 70.054"></path></g></g><g class="vf-stavenote" id="vf-auto1368"><g class="vf-notehead" id="vf-auto1404" pointer-events="bounding-box"><path stroke="none" d="M110.908 70.054C114.502 70.054,118.911 66.741,118.911 63.315C118.911 61.237,117.282 59.946,114.98 59.946C110.543 59.946,106.977 63.231,106.977 66.685C106.977 68.791,108.718 70.054,110.908 70.054"></path></g></g><g class="vf-stavenote" id="vf-auto1376"><g class="vf-notehead" id="vf-auto1406" pointer-events="bounding-box"><path stroke="none" d="M142.77 70.054C146.364 70.054,150.773 66.741,150.773 63.315C150.773 61.237,149.144 59.946,146.842 59.946C142.405 59.946,138.839 63.231,138.839 66.685C138.839 68.791,140.58 70.054,142.77 70.054"></path></g></g><g class="vf-stavenote" id="vf-auto1384"><g class="vf-notehead" id="vf-auto1408" pointer-events="bounding-box"><path stroke="none" d="M174.632 70.054C178.226 70.054,182.635 66.741,182.635 63.315C182.635 61.237,181.006 59.946,178.703 59.946C174.267 59.946,170.701 63.231,170.701 66.685C170.701 68.791,172.442 70.054,174.632 70.054"></path></g></g><g class="vf-stavenote" id="vf-auto1392"><g class="vf-notehead" id="vf-auto1410" pointer-events="bounding-box"><path stroke="none" d="M206.494 70.054C210.088 70.054,214.496 66.741,214.496 63.315C214.496 61.237,212.868 59.946,210.565 59.946C206.129 59.946,202.562 63.231,202.562 66.685C202.562 68.791,204.303 70.054,206.494 70.054"></path></g></g><g class="vf-stem" id="vf-auto1353" pointer-events="bounding-box"><path stroke-width="1.5" fill="none" d="M22.75 67L22.75 99.25"></path></g><g class="vf-stem" id="vf-auto1361" pointer-events="bounding-box"><path stroke-width="1.5" fill="none" d="M65.238 67L65.238 99.25"></path></g><g class="vf-stem" id="vf-auto1369" pointer-events="bounding-box"><path stroke-width="1.5" fill="none" d="M107.727 67L107.727 99.25"></path></g><g class="vf-stem" id="vf-auto1377" pointer-events="bounding-box"><path stroke-width="1.5" fill="none" d="M139.589 67L139.589 99.25"></path></g><g class="vf-stem" id="vf-auto1385" pointer-events="bounding-box"><path stroke-width="1.5" fill="none" d="M171.451 67L171.451 99.25"></path></g><g class="vf-stem" id="vf-auto1393" pointer-events="bounding-box"><path stroke-width="1.5" fill="none" d="M203.312 67L203.312 99.25"></path></g><g class="vf-beam" id="vf-auto1412"><path stroke="none" d="M22 100L22 95L203.562 95L203.562 100Z"></path><path stroke="none" d="M106.977 92.5L106.977 87.5L203.562 87.5L203.562 92.5Z"></path></g>
</svg>