<svg xmlns="http://www.w3.org/2000/svg" width="240" height="120" viewBox="0 0 240 120">
<style>path[fill="none"]{stroke:#000;}</style>
<g class="vf-stavenote" id="vf-auto1260"><g class="vf-notehead" id="vf-auto1266" pointer-events="bounding-box"><path stroke="none" d="M25.931 70.054C29.525 70.054,33.934 66.741,33.934 63.315C33.934 61.237,32.305 59.946,30.003 59.946C25.566 59.946,22 63.231,22 66.685C22 68.791,23.741 70.054,25.931 70.054"></path></g></g><g class="vf-stavenote" id="vf-auto1268"><g class="vf-notehead" id="vf-auto1274" pointer-events="bounding-box"><path stroke="none" d="M62.556 70.054C66.15 70.054,70.559 66.741,70.559 63.315C70.559 61.237,68.93 59.946,66.627 59.946C62.191 59.946,58.625 63.231,58.625 66.685C58.625 68.791,60.365 70.054,62.556 70.054"></path></g></g><g class="vf-stavenote" id="vf-auto1276"><g class="vf-stem" id="vf-auto1277" pointer-events="bounding-box"><path stroke-width="1.5" fill="none" d="M95.999 67L95.999 100"></path></g><g class="vf-notehead" id="vf-auto1280" pointer-events="bounding-box"><path stroke="none" d="M99.18 70.054C102.775 70.054,107.183 66.741,107.183 63.315C107.183 61.237,105.554 59.946,103.252 59.946C98.815 59.946,95.249 63.231,95.249 66.685C95.249 68.791,96.99 70.054,99.18 70.054"></path></g></g><g class="vf-stem" id="vf-auto1261" pointer-events="bounding-box"><path stroke-width="1.5" fill="none" d="M22.75 67L22.75 99.25"></path></g><g class="vf-stem" id="vf-auto1269" pointer-events="bounding-box"><path stroke-width="1.5" fill="none" d="M59.375 67L59.375 99.25"></path></g><g class="vf-beam" id="vf-auto1281"><path stroke="none" d="M22 100L22 95L59.625 95L59.625 100Z"></path><path stroke="none" d="M22 92.5L22 87.5L59.625 87.5L59.625 92.5Z"></path></g>
</svg>