<svg xmlns="http://www.w3.org/2000/svg" width="240" height="120" viewBox="0 0 240 120">
<style>path[fill="none"]{stroke:#000;}</style>
<g class="vf-stavenote" id="vf-auto1003"><g class="vf-notehead" id="vf-auto1009" pointer-events="bounding-box"><path stroke="none" d="M25.931 70.054C29.525 70.054,33.934 66.741,33.934 63.315C33.934 61.237,32.305 59.946,30.003 59.946C25.566 59.946,22 63.231,22 66.685C22 68.791,23.741 70.054,25.931 70.054"></path></g></g><g class="vf-stavenote" id="vf-auto1011"><g class="vf-notehead" id="vf-auto1017" pointer-events="bounding-box"><path stroke="none" d="M88.953 70.054C92.547 70.054,96.956 66.741,96.956 63.315C96.956 61.237,95.327 59.946,93.025 59.946C88.588 59.946,85.022 63.231,85.022 66.685C85.022 68.791,86.763 70.054,88.953 70.054"></path></g></g><g class="vf-stavenote" id="vf-auto1019"><g class="vf-notehead" id="vf-auto1025" pointer-events="bounding-box"><path stroke="none" d="M151.975 70.054C155.569 70.054,159.978 66.741,159.978 63.315C159.978 61.237,158.349 59.946,156.047 59.946C151.61 59.946,148.044 63.231,148.044 66.685C148.044 68.791,149.785 70.054,151.975 70.054"></path></g></g><g class="vf-stem" id="vf-auto1004" pointer-events="bounding-box"><path stroke-width="1.5" fill="none" d="M22.75 67L22.75 99.25"></path></g><g class="vf-stem" id="vf-auto1012" pointer-events="bounding-box"><path stroke-width="1.5" fill="none" d="M85.772 67L85.772 99.25"></path></g><g class="vf-stem" id="vf-auto1020" pointer-events="bounding-box"><path stroke-width="1.5" fill="none" d="M148.794 67L148.794 99.25"></path></g><g class="vf-beam" id="vf-auto1027"><path stroke="none" d="M22 100L22 95L149.044 95L149.044 100Z"></path></g><rect x="17" y="42" width="64.373" height="1" stroke="none"></rect><rect x="100.605" y="42" width="64.373" height="1" stroke="none"></rect><rect x="17" y="42" width="1" height="10" stroke="none"></rect><rect x="164.978" y="42" width="1" height="10" stroke="none"></rect><path stroke="none" d="M91.545 35.785C91.511 35.785,91.494 35.785,91.444 35.785L91.275 35.752C91.242 35.752,91.208 35.752,91.174 35.752C89.085 35.752,86.996 37.15,86.996 38.43C86.996 39.222,87.468 40.301,88.967 40.385L89.085 40.385C90.163 40.385,90.686 39.61,90.686 38.818L90.686 38.616C90.618 37.723,90.012 37.672,89.894 37.622C89.776 37.571,89.405 37.622,89.405 37.285L89.405 37.184C89.456 36.779,90.214 36.577,90.416 36.577C92.488 36.577,92.674 37.874,92.674 38.447L92.674 38.616C92.674 40.418,91.242 41.126,89.725 41.193C89.473 41.21,89.136 41.345,89.136 41.598C89.136 41.901,89.557 41.901,89.742 41.901C92.539 41.901,92.758 43.788,92.758 44.108C92.758 46.669,91.444 46.972,90.905 46.972C90.821 46.972,90.719 46.939,90.686 46.939C90.5 46.922,90.029 46.922,90.012 46.551L90.012 46.433C90.012 45.894,90.551 45.54,90.568 44.833C90.568 43.822,89.86 43.08,88.816 43.08C88.731 43.08,88.647 43.08,88.563 43.114C88.142 43.182,87.687 43.417,87.384 43.738C86.979 44.108,86.861 44.681,86.861 45.22C86.912 47.107,88.63 47.848,91.006 47.882L91.225 47.882C93.634 47.882,96.094 46.652,96.094 44.513L96.094 44.344C96.06 43.636,95.875 43.182,95.42 42.642C95.268 42.457,95.083 42.289,94.847 42.137L94.325 41.851L93.533 41.632C93.415 41.598,93.331 41.598,93.28 41.514C93.263 41.463,93.263 41.429,93.263 41.396C93.263 41.295,93.28 41.193,93.365 41.177C93.634 41.092,93.887 41.076,94.106 40.958C95.083 40.486,95.589 39.862,95.589 38.751C95.589 36.51,92.556 35.853,91.545 35.785"></path>
</svg>