<svg xmlns="http://www.w3.org/2000/svg" width="240" height="120" viewBox="0 0 240 120">
<style>path[fill="none"]{stroke:#000;}</style>
<g class="vf-stavenote" id="vf-auto1035"><g class="vf-notehead" id="vf-auto1041" pointer-events="bounding-box"><path stroke="none" d="M25.931 70.054C29.525 70.054,33.934 66.741,33.934 63.315C33.934 61.237,32.305 59.946,30.003 59.946C25.566 59.946,22 63.231,22 66.685C22 68.791,23.741 70.054,25.931 70.054"></path></g></g><g class="vf-stavenote" id="vf-auto1043"><g class="vf-notehead" id="vf-auto1049" pointer-events="bounding-box"><path stroke="none" d="M70.307 70.054C73.901 70.054,78.31 66.741,78.31 63.315C78.31 61.237,76.681 59.946,74.379 59.946C69.942 59.946,66.376 63.231,66.376 66.685C66.376 68.791,68.117 70.054,70.307 70.054"></path></g></g><g class="vf-stavenote" id="vf-auto1051"><g class="vf-notehead" id="vf-auto1057" pointer-events="bounding-box"><path stroke="none" d="M114.683 70.054C118.277 70.054,122.686 66.741,122.686 63.315C122.686 61.237,121.057 59.946,118.754 59.946C114.318 59.946,110.752 63.231,110.752 66.685C110.752 68.791,112.493 70.054,114.683 70.054"></path></g></g><g class="vf-stavenote" id="vf-auto1059"><g class="vf-notehead" id="vf-auto1065" pointer-events="bounding-box"><path stroke="none" d="M159.059 70.054C162.653 70.054,167.062 66.741,167.062 63.315C167.062 61.237,165.433 59.946,163.13 59.946C158.694 59.946,155.128 63.231,155.128 66.685C155.128 68.791,156.868 70.054,159.059 70.054"></path></g></g><g class="vf-stavenote" id="vf-auto1067"><g class="vf-notehead" id="vf-auto1073" pointer-events="bounding-box"><path stroke="none" d="M203.435 70.054C207.029 70.054,211.437 66.741,211.437 63.315C211.437 61.237,209.809 59.946,207.506 59.946C203.07 59.946,199.503 63.231,199.503 66.685C199.503 68.791,201.244 70.054,203.435 70.054"></path></g></g><g class="vf-stem" id="vf-auto1036" pointer-events="bounding-box"><path stroke-width="1.5" fill="none" d="M22.75 67L22.75 99.25"></path></g><g class="vf-stem" id="vf-auto1044" pointer-events="bounding-box"><path stroke-width="1.5" fill="none" d="M67.126 67L67.126 99.25"></path></g><g class="vf-stem" id="vf-auto1052" pointer-events="bounding-box"><path stroke-width="1.5" fill="none" d="M111.502 67L111.502 99.25"></path></g><g class="vf-stem" id="vf-auto1060" pointer-events="bounding-box"><path stroke-width="1.5" fill="none" d="M155.878 67L155.878 99.25"></path></g><g class="vf-stem" id="vf-auto1068" pointer-events="bounding-box"><path stroke-width="1.5" fill="none" d="M200.253 67L200.253 99.25"></path></g><g class="vf-beam" id="vf-auto1075"><path stroke="none" d="M22 100L22 95L200.503 95L200.503 100Z"></path><path stroke="none" d="M22 92.5L22 87.5L200.503 87.5L200.503 92.5Z"></path></g><rect x="17" y="42" width="90.313" height="1" stroke="none"></rect><rect x="126.124" y="42" width="90.313" height="1" stroke="none"></rect><rect x="17" y="42" width="1" height="10" stroke="none"></rect><rect x="216.437" y="42" width="1" height="10" stroke="none"></rect><path stroke="none" d="M114.149 40.368C114.149 40.368,114.25 39.003,114.284 38.784C114.301 38.599,114.419 38.481,114.638 38.481L114.739 38.481C114.975 38.531,116.121 38.7,117.115 38.7C120.484 38.7,120.602 36.746,120.602 36.358C120.602 36.055,120.535 35.853,120.265 35.853C119.962 35.853,118.058 36.072,117.283 36.072C116.508 36.072,114.419 35.886,114.015 35.836C113.577 35.836,113.459 36.055,113.425 36.24L113.155 41.632L113.155 41.682C113.155 42.002,113.408 42.036,113.644 42.036C113.897 42.036,113.913 41.817,114.183 41.564C114.419 41.311,115.009 40.755,115.834 40.755C116.66 40.755,118.328 41.21,118.328 43.906C118.328 46.585,116.896 46.922,116.272 46.922C116.07 46.922,115.885 46.922,115.716 46.854C115.581 46.77,115.447 46.669,115.413 46.501C115.413 46.332,115.581 46.248,115.716 46.164C116.272 45.827,116.626 45.22,116.626 44.546C116.626 43.468,115.784 42.642,114.739 42.642C113.425 42.642,112.903 43.603,112.818 44.445C112.802 44.597,112.802 44.732,112.802 44.883C112.802 46.888,114.116 47.882,117.098 47.882C119.996 47.882,121.613 46.096,121.613 43.906C121.613 41.699,119.81 39.913,117.603 39.913C116.188 39.913,115.143 40.149,114.368 40.604C114.335 40.637,114.284 40.637,114.25 40.637C114.149 40.637,114.149 40.536,114.149 40.469"></path>
</svg>