<svg xmlns="http://www.w3.org/2000/svg" width="240" height="120" viewBox="0 0 240 120">
<style>path[fill="none"]{stroke:#000;}</style>
<g class="vf-stavenote" id="vf-auto1139"><g class="vf-notehead" id="vf-auto1145" pointer-events="bounding-box"><path stroke="none" d="M25.931 70.054C29.525 70.054,33.934 66.741,33.934 63.315C33.934 61.237,32.305 59.946,30.003 59.946C25.566 59.946,22 63.231,22 66.685C22 68.791,23.741 70.054,25.931 70.054"></path></g></g><g class="vf-stavenote" id="vf-auto1147"><g class="vf-notehead" id="vf-auto1153" pointer-events="bounding-box"><path stroke="none" d="M56.085 70.054C59.679 70.054,64.088 66.741,64.088 63.315C64.088 61.237,62.459 59.946,60.156 59.946C55.72 59.946,52.154 63.231,52.154 66.685C52.154 68.791,53.895 70.054,56.085 70.054"></path></g></g><g class="vf-stavenote" id="vf-auto1155"><g class="vf-notehead" id="vf-auto1161" pointer-events="bounding-box"><path stroke="none" d="M86.238 70.054C89.833 70.054,94.241 66.741,94.241 63.315C94.241 61.237,92.613 59.946,90.31 59.946C85.873 59.946,82.307 63.231,82.307 66.685C82.307 68.791,84.048 70.054,86.238 70.054"></path></g></g><g class="vf-stavenote" id="vf-auto1163"><g class="vf-notehead" id="vf-auto1169" pointer-events="bounding-box"><path stroke="none" d="M116.392 70.054C119.986 70.054,124.395 66.741,124.395 63.315C124.395 61.237,122.766 59.946,120.464 59.946C116.027 59.946,112.461 63.231,112.461 66.685C112.461 68.791,114.202 70.054,116.392 70.054"></path></g></g><g class="vf-stavenote" id="vf-auto1171"><g class="vf-notehead" id="vf-auto1177" pointer-events="bounding-box"><path stroke="none" d="M146.546 70.054C150.14 70.054,154.549 66.741,154.549 63.315C154.549 61.237,152.92 59.946,150.617 59.946C146.181 59.946,142.615 63.231,142.615 66.685C142.615 68.791,144.355 70.054,146.546 70.054"></path></g></g><g class="vf-stavenote" id="vf-auto1179"><g class="vf-notehead" id="vf-auto1185" pointer-events="bounding-box"><path stroke="none" d="M176.699 70.054C180.294 70.054,184.702 66.741,184.702 63.315C184.702 61.237,183.074 59.946,180.771 59.946C176.334 59.946,172.768 63.231,172.768 66.685C172.768 68.791,174.509 70.054,176.699 70.054"></path></g></g><g class="vf-stavenote" id="vf-auto1187"><g class="vf-notehead" id="vf-auto1193" pointer-events="bounding-box"><path stroke="none" d="M206.853 70.054C210.447 70.054,214.856 66.741,214.856 63.315C214.856 61.237,213.227 59.946,210.925 59.946C206.488 59.946,202.922 63.231,202.922 66.685C202.922 68.791,204.663 70.054,206.853 70.054"></path></g></g><g class="vf-stem" id="vf-auto1140" pointer-events="bounding-box"><path stroke-width="1.5" fill="none" d="M22.75 67L22.75 99.25"></path></g><g class="vf-stem" id="vf-auto1148" pointer-events="bounding-box"><path stroke-width="1.5" fill="none" d="M52.904 67L52.904 99.25"></path></g><g class="vf-stem" id="vf-auto1156" pointer-events="bounding-box"><path stroke-width="1.5" fill="none" d="M83.057 67L83.057 99.25"></path></g><g class="vf-stem" id="vf-auto1164" pointer-events="bounding-box"><path stroke-width="1.5" fill="none" d="M113.211 67L113.211 99.25"></path></g><g class="vf-stem" id="vf-auto1172" pointer-events="bounding-box"><path stroke-width="1.5" fill="none" d="M143.365 67L143.365 99.25"></path></g><g class="vf-stem" id="vf-auto1180" pointer-events="bounding-box"><path stroke-width="1.5" fill="none" d="M173.518 67L173.518 99.25"></path></g><g class="vf-stem" id="vf-auto1188" pointer-events="bounding-box"><path stroke-width="1.5" fill="none" d="M203.672 67L203.672 99.25"></path></g><g class="vf-beam" id="vf-auto1195"><path stroke="none" d="M22 100L22 95L203.922 95L203.922 100Z"></path><path stroke="none" d="M22 92.5L22 87.5L203.922 87.5L203.922 92.5Z"></path></g><rect x="17" y="42" width="82.609" height="1" stroke="none"></rect><rect x="137.247" y="42" width="82.609" height="1" stroke="none"></rect><rect x="17" y="42" width="1" height="10" stroke="none"></rect><rect x="219.856" y="42" width="1" height="10" stroke="none"></rect><path stroke="none" d="M114.819 36.847C114.819 36.19,114.819 35.886,114.414 35.886C114.381 35.886,113.993 35.971,113.909 36.139C113.724 36.442,113.387 37.824,112.78 37.824C112.174 37.824,111.045 35.752,109.023 35.752C107.625 35.752,107.254 36.324,106.917 36.628C106.58 36.948,106.428 37.049,106.26 37.066C106.058 37.066,105.754 36.729,105.62 36.493C105.586 36.392,105.451 36.324,105.333 36.324C105.215 36.324,105.097 36.392,105.097 36.611L105.097 40.604C105.097 40.604,105.114 40.991,105.367 40.991C105.552 40.991,105.62 40.789,105.721 40.52C105.973 39.913,106.277 38.498,107.372 38.498C108.349 38.498,109.512 40.317,110.91 40.317C111.601 40.317,111.938 39.964,112.123 39.812C112.207 39.761,112.291 39.711,112.342 39.711C112.443 39.711,112.494 39.778,112.511 39.93C112.511 40.604,110.657 41.968,109.191 43.687C108.265 44.765,107.523 46.164,107.523 47.107C107.523 47.629,107.523 47.865,107.978 47.865C108.416 47.865,108.956 47.646,109.562 47.646C110.169 47.646,111.297 47.865,111.55 47.865C111.786 47.865,111.938 47.663,111.938 46.972C111.938 42.912,114.819 39.441,114.819 36.948"></path><path stroke="none" d="M119.478 40.128 A1.404 1.404 0 0 0 116.67 40.128 A1.404 1.404 0 0 0 119.478 40.128Z"></path><path stroke="none" d="M119.478 44.808 A1.404 1.404 0 0 0 116.67 44.808 A1.404 1.404 0 0 0 119.478 44.808Z"></path><path stroke="none" d="M130.596 43.603L130.596 38.397C130.596 38.211,130.579 37.992,130.309 37.992C130.09 37.992,129.973 38.043,129.821 38.211L127.513 40.991C127.428 41.126,127.294 41.261,127.294 41.564L127.294 43.603L124.025 43.603C125.963 41.952,129.855 36.442,129.922 36.139L129.939 36.072C129.939 35.853,129.77 35.718,129.585 35.718C129.366 35.718,128.372 35.752,127.934 35.752C127.496 35.752,126.401 35.718,126.215 35.718C125.996 35.718,125.659 35.785,125.659 36.173C125.659 39.172,123.267 42.558,122.543 43.569L122.408 43.771C122.408 43.771,122.408 43.788,122.408 43.788L122.374 43.822C122.324 43.94,122.307 44.024,122.307 44.108C122.307 44.344,122.492 44.513,122.795 44.513L127.294 44.513L127.294 46.046C127.294 46.703,126.771 46.888,126.333 46.888C125.946 46.888,125.777 47.107,125.777 47.36C125.777 47.596,125.862 47.865,126.232 47.865L131.405 47.865C131.64 47.865,131.893 47.697,131.893 47.36C131.893 47.023,131.59 46.871,131.354 46.871C131.118 46.871,130.596 46.72,130.596 45.945L130.596 44.513L132.365 44.513C132.618 44.513,132.736 44.344,132.736 44.058C132.736 43.771,132.635 43.603,132.365 43.603"></path>
</svg>