<svg xmlns="http://www.w3.org/2000/svg" width="240" height="120" viewBox="0 0 240 120">
<style>path[fill="none"]{stroke:#000;}</style>
<g class="vf-stavenote" id="vf-auto1083"><g class="vf-notehead" id="vf-auto1089" pointer-events="bounding-box"><path stroke="none" d="M25.931 70.054C29.525 70.054,33.934 66.741,33.934 63.315C33.934 61.237,32.305 59.946,30.003 59.946C25.566 59.946,22 63.231,22 66.685C22 68.791,23.741 70.054,25.931 70.054"></path></g></g><g class="vf-stavenote" id="vf-auto1091"><g class="vf-notehead" id="vf-auto1097" pointer-events="bounding-box"><path stroke="none" d="M61.861 70.054C65.455 70.054,69.864 66.741,69.864 63.315C69.864 61.237,68.235 59.946,65.932 59.946C61.496 59.946,57.93 63.231,57.93 66.685C57.93 68.791,59.67 70.054,61.861 70.054"></path></g></g><g class="vf-stavenote" id="vf-auto1099"><g class="vf-notehead" id="vf-auto1105" pointer-events="bounding-box"><path stroke="none" d="M97.79 70.054C101.384 70.054,105.793 66.741,105.793 63.315C105.793 61.237,104.164 59.946,101.862 59.946C97.425 59.946,93.859 63.231,93.859 66.685C93.859 68.791,95.6 70.054,97.79 70.054"></path></g></g><g class="vf-stavenote" id="vf-auto1107"><g class="vf-notehead" id="vf-auto1113" pointer-events="bounding-box"><path stroke="none" d="M133.72 70.054C137.314 70.054,141.723 66.741,141.723 63.315C141.723 61.237,140.094 59.946,137.791 59.946C133.355 59.946,129.789 63.231,129.789 66.685C129.789 68.791,131.529 70.054,133.72 70.054"></path></g></g><g class="vf-stavenote" id="vf-auto1115"><g class="vf-notehead" id="vf-auto1121" pointer-events="bounding-box"><path stroke="none" d="M169.649 70.054C173.243 70.054,177.652 66.741,177.652 63.315C177.652 61.237,176.023 59.946,173.721 59.946C169.284 59.946,165.718 63.231,165.718 66.685C165.718 68.791,167.459 70.054,169.649 70.054"></path></g></g><g class="vf-stavenote" id="vf-auto1123"><g class="vf-notehead" id="vf-auto1129" pointer-events="bounding-box"><path stroke="none" d="M205.579 70.054C209.173 70.054,213.581 66.741,213.581 63.315C213.581 61.237,211.953 59.946,209.65 59.946C205.214 59.946,201.647 63.231,201.647 66.685C201.647 68.791,203.388 70.054,205.579 70.054"></path></g></g><g class="vf-stem" id="vf-auto1084" pointer-events="bounding-box"><path stroke-width="1.5" fill="none" d="M22.75 67L22.75 99.25"></path></g><g class="vf-stem" id="vf-auto1092" pointer-events="bounding-box"><path stroke-width="1.5" fill="none" d="M58.68 67L58.68 99.25"></path></g><g class="vf-stem" id="vf-auto1100" pointer-events="bounding-box"><path stroke-width="1.5" fill="none" d="M94.609 67L94.609 99.25"></path></g><g class="vf-stem" id="vf-auto1108" pointer-events="bounding-box"><path stroke-width="1.5" fill="none" d="M130.539 67L130.539 99.25"></path></g><g class="vf-stem" id="vf-auto1116" pointer-events="bounding-box"><path stroke-width="1.5" fill="none" d="M166.468 67L166.468 99.25"></path></g><g class="vf-stem" id="vf-auto1124" pointer-events="bounding-box"><path stroke-width="1.5" fill="none" d="M202.397 67L202.397 99.25"></path></g><g class="vf-beam" id="vf-auto1131"><path stroke="none" d="M22 100L22 95L202.647 95L202.647 100Z"></path><path stroke="none" d="M22 92.5L22 87.5L202.647 87.5L202.647 92.5Z"></path></g><rect x="17" y="42" width="82.056" height="1" stroke="none"></rect><rect x="136.526" y="42" width="82.056" height="1" stroke="none"></rect><rect x="17" y="42" width="1" height="10" stroke="none"></rect><rect x="218.581" y="42" width="1" height="10" stroke="none"></rect><path stroke="none" d="M111.452 39.778C112.48 39.778,113.39 38.986,113.39 37.942C113.39 37.841,113.39 37.773,113.373 37.672C113.137 36.122,111.233 35.718,109.919 35.718C108.083 35.735,106.364 36.628,105.488 38.279C104.949 39.306,104.544 40.587,104.544 41.733L104.544 41.817C104.561 42.946,104.764 44.209,105.286 45.17C106.28 46.972,107.476 47.848,109.515 47.848C110.61 47.848,111.823 47.663,112.699 46.972C113.541 46.282,114.097 45.203,114.097 44.108C114.097 42.204,112.311 40.587,110.441 40.587C109.666 40.587,108.858 40.873,108.234 41.429C108.184 41.48,108.133 41.48,108.083 41.48C107.931 41.48,107.864 41.295,107.864 40.907C107.931 36.409,109.363 36.291,109.885 36.291C110.357 36.291,110.677 36.409,110.677 36.661C110.677 36.998,110.222 37.285,110.071 37.571C109.953 37.79,109.902 38.043,109.902 38.279C109.902 38.649,110.02 39.003,110.273 39.273C110.441 39.593,111.132 39.778,111.452 39.778M109.447 41.749C110.222 41.749,110.879 42.963,110.879 44.462C110.879 45.978,110.222 47.191,109.447 47.191C108.672 47.191,108.032 45.978,108.032 44.462C108.032 42.963,108.672 41.749,109.447 41.749"></path><path stroke="none" d="M118.757 40.128 A1.404 1.404 0 0 0 115.949 40.128 A1.404 1.404 0 0 0 118.757 40.128Z"></path><path stroke="none" d="M118.757 44.808 A1.404 1.404 0 0 0 115.949 44.808 A1.404 1.404 0 0 0 118.757 44.808Z"></path><path stroke="none" d="M129.875 43.603L129.875 38.397C129.875 38.211,129.858 37.992,129.588 37.992C129.369 37.992,129.251 38.043,129.1 38.211L126.791 40.991C126.707 41.126,126.572 41.261,126.572 41.564L126.572 43.603L123.304 43.603C125.241 41.952,129.133 36.442,129.201 36.139L129.217 36.072C129.217 35.853,129.049 35.718,128.864 35.718C128.645 35.718,127.651 35.752,127.213 35.752C126.774 35.752,125.679 35.718,125.494 35.718C125.275 35.718,124.938 35.785,124.938 36.173C124.938 39.172,122.546 42.558,121.821 43.569L121.686 43.771C121.686 43.771,121.686 43.788,121.686 43.788L121.653 43.822C121.602 43.94,121.585 44.024,121.585 44.108C121.585 44.344,121.771 44.513,122.074 44.513L126.572 44.513L126.572 46.046C126.572 46.703,126.05 46.888,125.612 46.888C125.224 46.888,125.056 47.107,125.056 47.36C125.056 47.596,125.14 47.865,125.511 47.865L130.683 47.865C130.919 47.865,131.172 47.697,131.172 47.36C131.172 47.023,130.869 46.871,130.633 46.871C130.397 46.871,129.875 46.72,129.875 45.945L129.875 44.513L131.644 44.513C131.896 44.513,132.014 44.344,132.014 44.058C132.014 43.771,131.913 43.603,131.644 43.603"></path>
</svg>