<svg xmlns="http://www.w3.org/2000/svg" width="200" height="120" viewBox="0 0 200 120">
<g class="vf-stavenote" id="vf-auto1030"><g class="vf-stem" id="vf-auto1031" pointer-events="bounding-box"><path stroke-width="1.5" fill="none" d="M33.184 63L33.184 33"></path></g><g class="vf-notehead" id="vf-auto1034" pointer-events="bounding-box"><path stroke="none" d="M25.931 70.054C29.525 70.054,33.934 66.741,33.934 63.315C33.934 61.237,32.305 59.946,30.003 59.946C25.566 59.946,22 63.231,22 66.685C22 68.791,23.741 70.054,25.931 70.054"></path></g><path stroke="none" d="M43.441 60.18C43.582 59.983,43.722 57.681,43.722 55.743L43.722 54.844C43.722 53.16,43.273 51.503,42.543 49.987C42.543 49.874,42.515 49.79,42.515 49.622C42.515 49.565,42.515 49.481,42.543 49.341C42.655 49.116,43.554 46.673,43.554 44.202C43.554 43.697,43.526 43.247,43.441 42.77C43.02 40.018,41.981 38.867,39.061 35.722C36.871 33.391,34.624 32.717,33.922 28.449C33.838 28,33.361 27.916,33.108 27.916C32.883 27.916,32.434 28.028,32.434 28.337L32.434 44.006L32.631 44.006C35.13 44.09,38.022 44.174,40.802 49.846C41.728 51.784,42.094 53.749,42.094 55.855C42.094 57.035,41.981 58.242,41.785 59.45C41.728 59.618,41.728 59.702,41.728 59.815C41.728 60.348,42.065 60.882,42.627 60.882C42.908 60.882,43.189 60.713,43.441 60.18M40.886 46.561C40.24 45.55,39.538 44.736,38.696 43.781C36.814 41.591,34.933 40.608,34.091 37.294C34.063 37.266,34.063 37.21,34.063 37.182C34.063 37.014,34.287 36.761,34.624 36.761L34.933 36.761C37.404 36.761,39.594 39.035,40.914 41.029C41.644 42.068,42.009 43.332,42.009 44.623C42.009 44.904,42.009 45.157,41.981 45.438C41.897 45.747,41.897 46.168,41.7 46.477C41.644 46.589,41.363 46.729,41.167 46.729C41.055 46.729,40.97 46.673,40.886 46.561"></path></g>
</svg>