<svg xmlns="http://www.w3.org/2000/svg" width="200" height="120" viewBox="0 0 200 120">
<style>path[fill="none"]{stroke:#000;}</style>
<g class="vf-stavenote" id="vf-auto1034"><g class="vf-stem" id="vf-auto1035" pointer-events="bounding-box"><path stroke-width="1.5" fill="none" d="M22.75 67L22.75 97"></path></g><g class="vf-notehead" id="vf-auto1040" pointer-events="bounding-box"><path stroke="none" d="M25.931 70.054C29.525 70.054,33.934 66.741,33.934 63.315C33.934 61.237,32.305 59.946,30.003 59.946C25.566 59.946,22 63.231,22 66.685C22 68.791,23.741 70.054,25.931 70.054"></path></g><path stroke="none" d="M31.716 70.213C32.305 73.611,32.305 77.29,30.761 80.435C27.981 86.107,24.696 86.219,22.197 86.303L22 86.303L22 101.972C22 102.168,22.281 102.365,22.674 102.365C22.983 102.365,23.404 102.281,23.488 101.832C24.471 95.598,32.446 93.885,33.4 87.511C33.485 87.09,33.513 86.584,33.513 86.079C33.513 83.608,32.642 81.165,32.502 80.94C32.474 80.856,32.474 80.772,32.474 80.659C32.474 80.491,32.502 80.406,32.502 80.294C33.962 77.262,34.018 73.302,33.372 70.045C33.148 69.118,32.867 69.174,32.39 69.174C31.912 69.203,31.575 69.54,31.716 70.213M31.126 83.551C31.351 83.551,31.631 83.692,31.66 83.832C31.856 84.141,31.856 84.534,31.94 84.843C31.996 85.152,31.996 85.433,31.996 85.657C31.996 87.005,31.631 88.213,30.901 89.252C29.554 91.245,26.97 93.52,24.499 93.52L24.19 93.52C23.853 93.52,23.629 93.295,23.629 93.099C23.629 93.071,23.629 93.014,23.657 92.986C24.499 89.673,26.774 88.746,28.683 86.5C29.525 85.573,30.199 84.787,30.845 83.72C30.929 83.608,31.014 83.551,31.126 83.551"></path></g>
</svg>