<svg xmlns="http://www.w3.org/2000/svg" width="200" height="120" viewBox="0 0 200 120">
<g class="vf-stavenote" id="vf-auto1022"><g class="vf-stem" id="vf-auto1023" pointer-events="bounding-box"><path stroke-width="1.5" fill="none" d="M22.75 67L22.75 97"></path></g><g class="vf-notehead" id="vf-auto1028" pointer-events="bounding-box"><path stroke="none" d="M25.931 70.054C29.525 70.054,33.934 66.741,33.934 63.315C33.934 61.237,32.305 59.946,30.003 59.946C25.566 59.946,22 63.231,22 66.685C22 68.791,23.741 70.054,25.931 70.054"></path></g><path stroke="none" d="M31.716 71.28C32.277 72.965,32.558 74.987,32.558 76.812C32.558 79.199,31.547 82.597,30.929 83.973C29.441 87.37,27.419 90.628,22 92.453L22 101.972C22 102.365,22.337 102.562,22.646 102.562C23.011 102.562,23.544 102.337,23.629 101.663C24.303 97.844,27.307 94.306,29.357 91.133C31.912 87.118,34.383 82.316,34.383 77.262C34.383 74.088,33.569 71.224,33.232 69.933C33.12 69.483,32.867 69.315,32.586 69.315C31.996 69.315,31.294 70.101,31.716 71.28"></path></g>
</svg>