<svg xmlns="http://www.w3.org/2000/svg" width="200" height="120" viewBox="0 0 200 120">
<g class="vf-stavenote" id="vf-auto1020"><g class="vf-stem" id="vf-auto1021" pointer-events="bounding-box"><path stroke-width="1.5" fill="none" d="M33.184 63L33.184 33"></path></g><g class="vf-notehead" id="vf-auto1024" pointer-events="bounding-box"><path stroke="none" d="M25.931 70.054C29.525 70.054,33.934 66.741,33.934 63.315C33.934 61.237,32.305 59.946,30.003 59.946C25.566 59.946,22 63.231,22 66.685C22 68.791,23.741 70.054,25.931 70.054"></path></g><path stroke="none" d="M42.065 59.955C42.065 59.955,43.104 56.108,43.104 52.935C43.104 47.881,40.998 43.135,38.471 39.092C36.393 35.89,34.708 32.409,34.063 28.534C33.922 27.888,33.613 27.635,33.192 27.635C32.771 27.635,32.434 27.747,32.434 28.253L32.434 37.912C35.102 38.39,38.949 43.893,40.409 47.319C40.998 48.695,41.363 50.998,41.363 53.384C41.363 55.21,41.083 57.119,40.409 58.944C40.324 59.169,40.268 59.365,40.268 59.534C40.268 60.18,40.69 60.545,40.914 60.713C41.167 60.882,41.869 60.629,42.065 59.955"></path></g>
</svg>