<svg xmlns="http://www.w3.org/2000/svg" width="200" height="120" viewBox="0 0 200 120">
<g class="vf-stavenote" id="vf-auto1046"><g class="vf-stem" id="vf-auto1047" pointer-events="bounding-box"><path stroke-width="1.5" fill="none" d="M22.75 67.65L22.75 100"></path></g><g class="vf-notehead" id="vf-auto1050" pointer-events="bounding-box"><path stroke="none" d="M25.931 70.054C32.586 70.054,33.934 64.635,33.934 63.315C33.934 61.237,32.277 59.946,29.919 59.946C23.909 59.946,22 64.607,22 66.685C22 68.847,23.685 70.054,25.931 70.054M25.033 68.51C24.19 68.51,23.685 68.061,23.404 67.583C23.292 67.359,23.179 67.05,23.179 66.769C23.179 64.803,29.048 61.602,30.929 61.602C31.716 61.602,32.137 61.967,32.446 62.445C32.558 62.697,32.67 62.95,32.67 63.231C32.67 64.972,26.97 68.51,25.033 68.51"></path></g></g>
</svg>