<svg xmlns="http://www.w3.org/2000/svg" width="200" height="120" viewBox="0 0 200 120">
<g class="vf-stavenote" id="vf-auto1057"><g class="vf-notehead" id="vf-auto1060" pointer-events="bounding-box"><path stroke="none" d="M25.145 66.544C25.791 67.359,26.38 68.117,26.886 68.959C26.97 69.128,27.139 69.437,27.139 69.521C27.139 69.577,27.139 69.661,27.082 69.689C27.026 69.858,26.858 69.886,26.661 69.886C26.493 69.886,26.156 69.802,26.015 69.774C25.959 69.774,25.875 69.774,25.847 69.774L25.51 69.661C23.404 69.661,22.028 71.543,22.028 73.536C22.028 75.558,23.769 77.524,26.717 79.798C27.054 80.051,27.448 80.163,27.784 80.163C28.065 80.163,28.346 80.079,28.402 79.91C28.43 79.798,28.458 79.714,28.458 79.63C28.458 79.265,28.15 78.956,27.813 78.675C27.307 78.675,26.858 77.58,26.774 77.215C26.661 76.878,26.605 76.513,26.605 76.148C26.605 74.491,27.448 73.199,29.16 73.199C30.34 73.199,31.66 73.649,32.362 73.901L32.39 73.929C32.558 73.986,32.642 73.986,32.727 73.986C32.839 73.986,32.923 73.929,32.923 73.817C32.923 73.34,31.856 71.992,31.435 71.515C29.89 69.661,28.627 68.145,28.627 65.899C28.627 65.842,28.627 65.814,28.627 65.758L28.683 65.477C28.683 65.449,28.683 65.393,28.683 65.365C28.823 63.006,30.284 61.069,31.351 59.412C31.463 59.216,31.491 59.019,31.491 58.822C31.491 58.401,31.351 58.036,31.351 58.036C31.351 58.036,25.37 50.932,24.668 50.23C24.471 50.033,24.19 49.921,23.938 49.921C23.544 49.921,23.123 50.202,23.123 50.763C23.123 50.96,23.179 51.185,23.292 51.409C23.46 51.859,25.763 53.908,25.763 56.829C25.763 58.317,25.145 60.058,23.348 61.967C22.927 62.36,22.758 62.81,22.758 63.147C22.758 63.708,23.179 64.101,23.179 64.101"></path></g></g>
</svg>