<svg xmlns="http://www.w3.org/2000/svg" width="400" height="120" viewBox="0 0 400 120">
<g class="vf-stavenote" id="vf-auto1128"><g class="vf-stem" id="vf-auto1129" pointer-events="bounding-box"><path stroke-width="1.5" fill="none" d="M22.75 67L22.75 100"></path></g><g class="vf-notehead" id="vf-auto1139" pointer-events="bounding-box"><path stroke="none" d="M25.931 70.054C29.525 70.054,33.934 66.741,33.934 63.315C33.934 61.237,32.305 59.946,30.003 59.946C25.566 59.946,22 63.231,22 66.685C22 68.791,23.741 70.054,25.931 70.054"></path><path stroke="none" d="M40.934 60 A2 2 0 0 0 36.934 60 A2 2 0 0 0 40.934 60"></path></g></g><g class="vf-stavenote" id="vf-auto1133"><g class="vf-stem" id="vf-auto1134" pointer-events="bounding-box"><path stroke-width="1.5" fill="none" d="M261.157 67L261.157 97"></path></g><g class="vf-notehead" id="vf-auto1140" pointer-events="bounding-box"><path stroke="none" d="M264.338 70.054C267.933 70.054,272.341 66.741,272.341 63.315C272.341 61.237,270.713 59.946,268.41 59.946C263.973 59.946,260.407 63.231,260.407 66.685C260.407 68.791,262.148 70.054,264.338 70.054"></path></g><path stroke="none" d="M270.123 71.28C270.684 72.965,270.965 74.987,270.965 76.812C270.965 79.199,269.954 82.597,269.337 83.973C267.848 87.37,265.827 90.628,260.407 92.453L260.407 101.972C260.407 102.365,260.744 102.562,261.053 102.562C261.418 102.562,261.952 102.337,262.036 101.663C262.71 97.844,265.714 94.306,267.764 91.133C270.319 87.118,272.79 82.316,272.79 77.262C272.79 74.088,271.976 71.224,271.639 69.933C271.527 69.483,271.274 69.315,270.993 69.315C270.404 69.315,269.702 70.101,270.123 71.28"></path></g>
</svg>