<svg xmlns="http://www.w3.org/2000/svg" width="200" height="120" viewBox="0 0 200 120">
<style>path[fill="none"]{stroke:#000;}</style>
<g class="vf-stavenote" id="vf-auto1224"><g class="vf-notehead" id="vf-auto1237" pointer-events="bounding-box"><path stroke="none" d="M25.931 70.054C29.525 70.054,33.934 66.741,33.934 63.315C33.934 61.237,32.305 59.946,30.003 59.946C25.566 59.946,22 63.231,22 66.685C22 68.791,23.741 70.054,25.931 70.054"></path><path stroke="none" d="M40.934 60 A2 2 0 0 0 36.934 60 A2 2 0 0 0 40.934 60"></path></g></g><g class="vf-stavenote" id="vf-auto1231"><g class="vf-notehead" id="vf-auto1239" pointer-events="bounding-box"><path stroke="none" d="M148.869 70.054C152.463 70.054,156.871 66.741,156.871 63.315C156.871 61.237,155.243 59.946,152.94 59.946C148.504 59.946,144.937 63.231,144.937 66.685C144.937 68.791,146.678 70.054,148.869 70.054"></path></g></g><g class="vf-stem" id="vf-auto1225" pointer-events="bounding-box"><path stroke-width="1.5" fill="none" d="M22.75 67L22.75 99.25"></path></g><g class="vf-stem" id="vf-auto1232" pointer-events="bounding-box"><path stroke-width="1.5" fill="none" d="M145.687 67L145.687 99.25"></path></g><g class="vf-beam" id="vf-auto1241"><path stroke="none" d="M22 100L22 95L145.937 95L145.937 100Z"></path><path stroke="none" d="M144.937 92.5L144.937 87.5L135.937 87.5L135.937 92.5Z"></path></g>
</svg>