<svg xmlns="http://www.w3.org/2000/svg" width="200" height="120" viewBox="0 0 200 120">
<g class="vf-stavenote" id="vf-auto1155"><g class="vf-notehead" id="vf-auto1158" pointer-events="bounding-box"><path stroke="none" d="M27.419 60.676C27.419 59.187,26.212 57.952,24.696 57.952C23.207 57.952,22 59.187,22 60.676C22 61.518,22.477 62.248,23.095 62.726C23.741 63.175,24.499 63.428,25.285 63.428C25.847 63.428,26.409 63.315,26.858 63.147C27.419 62.978,27.784 62.81,28.318 62.529C28.402 62.501,28.458 62.501,28.515 62.501C28.683 62.501,28.711 62.641,28.711 62.866C28.711 62.978,28.711 63.147,28.683 63.315C28.543 63.905,25.65 71.964,24.92 74.631C24.92 75.109,25.847 75.137,26.072 75.137C26.521 75.137,27.082 75.081,27.504 74.744C27.616 74.66,31.575 60.479,31.575 60.479C31.744 59.749,31.94 59.103,31.996 58.907C31.996 58.485,31.575 58.289,31.491 58.261C31.435 58.261,31.294 58.261,31.07 58.401C30.761 58.654,28.739 61.069,27.419 61.069"></path></g></g><g class="vf-stavenote" id="vf-auto1159"><g class="vf-stem" id="vf-auto1160" pointer-events="bounding-box"><path stroke-width="1.5" fill="none" d="M97.283 67L97.283 97"></path></g><g class="vf-notehead" id="vf-auto1165" pointer-events="bounding-box"><path stroke="none" d="M100.464 70.054C104.058 70.054,108.467 66.741,108.467 63.315C108.467 61.237,106.838 59.946,104.536 59.946C100.099 59.946,96.533 63.231,96.533 66.685C96.533 68.791,98.274 70.054,100.464 70.054"></path></g><path stroke="none" d="M106.249 71.28C106.81 72.965,107.091 74.987,107.091 76.812C107.091 79.199,106.08 82.597,105.462 83.973C103.974 87.37,101.952 90.628,96.533 92.453L96.533 101.972C96.533 102.365,96.87 102.562,97.179 102.562C97.544 102.562,98.077 102.337,98.162 101.663C98.836 97.844,101.84 94.306,103.89 91.133C106.445 87.118,108.916 82.316,108.916 77.262C108.916 74.088,108.102 71.224,107.765 69.933C107.653 69.483,107.4 69.315,107.119 69.315C106.529 69.315,105.827 70.101,106.249 71.28"></path></g>
</svg>