<svg xmlns="http://www.w3.org/2000/svg" width="200" height="120" viewBox="0 0 200 120">
<g class="vf-stavenote" id="vf-auto1171"><g class="vf-stem" id="vf-auto1172" pointer-events="bounding-box"><path stroke-width="1.5" fill="none" d="M22.75 67L22.75 97"></path></g><g class="vf-notehead" id="vf-auto1181" pointer-events="bounding-box"><path stroke="none" d="M25.931 70.054C29.525 70.054,33.934 66.741,33.934 63.315C33.934 61.237,32.305 59.946,30.003 59.946C25.566 59.946,22 63.231,22 66.685C22 68.791,23.741 70.054,25.931 70.054"></path></g><path stroke="none" d="M31.716 71.28C32.277 72.965,32.558 74.987,32.558 76.812C32.558 79.199,31.547 82.597,30.929 83.973C29.441 87.37,27.419 90.628,22 92.453L22 101.972C22 102.365,22.337 102.562,22.646 102.562C23.011 102.562,23.544 102.337,23.629 101.663C24.303 97.844,27.307 94.306,29.357 91.133C31.912 87.118,34.383 82.316,34.383 77.262C34.383 74.088,33.569 71.224,33.232 69.933C33.12 69.483,32.867 69.315,32.586 69.315C31.996 69.315,31.294 70.101,31.716 71.28"></path></g><g class="vf-stavenote" id="vf-auto1177"><g class="vf-notehead" id="vf-auto1180" pointer-events="bounding-box"><path stroke="none" d="M102.921 60.676C102.921 59.187,101.714 57.952,100.197 57.952C98.709 57.952,97.502 59.187,97.502 60.676C97.502 61.518,97.979 62.248,98.597 62.726C99.243 63.175,100.001 63.428,100.787 63.428C101.349 63.428,101.91 63.315,102.36 63.147C102.921 62.978,103.286 62.81,103.82 62.529C103.904 62.501,103.96 62.501,104.016 62.501C104.185 62.501,104.213 62.641,104.213 62.866C104.213 62.978,104.213 63.147,104.185 63.315C104.044 63.905,101.152 71.964,100.422 74.631C100.422 75.109,101.349 75.137,101.573 75.137C102.023 75.137,102.584 75.081,103.005 74.744C103.118 74.66,107.077 60.479,107.077 60.479C107.246 59.749,107.442 59.103,107.498 58.907C107.498 58.485,107.077 58.289,106.993 58.261C106.937 58.261,106.796 58.261,106.572 58.401C106.263 58.654,104.241 61.069,102.921 61.069"></path></g></g>
</svg>