<svg xmlns="http://www.w3.org/2000/svg" width="400" height="120" viewBox="0 0 400 120">
<style>path[fill="none"]{stroke:#000;}</style>
<g class="vf-stavenote" id="vf-auto1300"><g class="vf-stem" id="vf-auto1301" pointer-events="bounding-box"><path stroke-width="1.5" fill="none" d="M22.75 67L22.75 97"></path></g><g class="vf-notehead" id="vf-auto1316" pointer-events="bounding-box"><path stroke="none" d="M25.931 70.054C29.525 70.054,33.934 66.741,33.934 63.315C33.934 61.237,32.305 59.946,30.003 59.946C25.566 59.946,22 63.231,22 66.685C22 68.791,23.741 70.054,25.931 70.054"></path></g><path stroke="none" d="M31.716 71.28C32.277 72.965,32.558 74.987,32.558 76.812C32.558 79.199,31.547 82.597,30.929 83.973C29.441 87.37,27.419 90.628,22 92.453L22 101.972C22 102.365,22.337 102.562,22.646 102.562C23.011 102.562,23.544 102.337,23.629 101.663C24.303 97.844,27.307 94.306,29.357 91.133C31.912 87.118,34.383 82.316,34.383 77.262C34.383 74.088,33.569 71.224,33.232 69.933C33.12 69.483,32.867 69.315,32.586 69.315C31.996 69.315,31.294 70.101,31.716 71.28"></path></g><g class="vf-stavenote" id="vf-auto1306"><g class="vf-stem" id="vf-auto1307" pointer-events="bounding-box"><path stroke-width="1.5" fill="none" d="M115.138 67L115.138 100"></path></g><g class="vf-notehead" id="vf-auto1318" pointer-events="bounding-box"><path stroke="none" d="M118.319 70.054C121.913 70.054,126.322 66.741,126.322 63.315C126.322 61.237,124.693 59.946,122.39 59.946C117.954 59.946,114.388 63.231,114.388 66.685C114.388 68.791,116.129 70.054,118.319 70.054"></path></g></g><g class="vf-stavenote" id="vf-auto1310"><g class="vf-stem" id="vf-auto1311" pointer-events="bounding-box"><path stroke-width="1.5" fill="none" d="M279.428 67L279.428 97"></path></g><g class="vf-notehead" id="vf-auto1319" pointer-events="bounding-box"><path stroke="none" d="M282.61 70.054C286.204 70.054,290.612 66.741,290.612 63.315C290.612 61.237,288.984 59.946,286.681 59.946C282.245 59.946,278.678 63.231,278.678 66.685C278.678 68.791,280.419 70.054,282.61 70.054"></path></g><path stroke="none" d="M288.394 71.28C288.956 72.965,289.237 74.987,289.237 76.812C289.237 79.199,288.226 82.597,287.608 83.973C286.12 87.37,284.098 90.628,278.678 92.453L278.678 101.972C278.678 102.365,279.015 102.562,279.324 102.562C279.689 102.562,280.223 102.337,280.307 101.663C280.981 97.844,283.986 94.306,286.035 91.133C288.591 87.118,291.062 82.316,291.062 77.262C291.062 74.088,290.247 71.224,289.91 69.933C289.798 69.483,289.545 69.315,289.265 69.315C288.675 69.315,287.973 70.101,288.394 71.28"></path></g>
</svg>