<svg xmlns="http://www.w3.org/2000/svg" width="200" height="120" viewBox="0 0 200 120">
<g class="vf-stavenote" id="vf-auto1325"><g class="vf-notehead" id="vf-auto1328" pointer-events="bounding-box"><path stroke="none" d="M27.419 60.676C27.419 59.187,26.212 57.952,24.696 57.952C23.207 57.952,22 59.187,22 60.676C22 61.518,22.477 62.248,23.095 62.726C23.741 63.175,24.499 63.428,25.285 63.428C25.847 63.428,26.409 63.315,26.858 63.147C27.419 62.978,27.784 62.81,28.318 62.529C28.402 62.501,28.458 62.501,28.515 62.501C28.683 62.501,28.711 62.641,28.711 62.866C28.711 62.978,28.711 63.147,28.683 63.315C28.543 63.905,25.65 71.964,24.92 74.631C24.92 75.109,25.847 75.137,26.072 75.137C26.521 75.137,27.082 75.081,27.504 74.744C27.616 74.66,31.575 60.479,31.575 60.479C31.744 59.749,31.94 59.103,31.996 58.907C31.996 58.485,31.575 58.289,31.491 58.261C31.435 58.261,31.294 58.261,31.07 58.401C30.761 58.654,28.739 61.069,27.419 61.069"></path></g></g><g class="vf-stavenote" id="vf-auto1329"><g class="vf-notehead" id="vf-auto1341" pointer-events="bounding-box"><path stroke="none" d="M112.306 70.054C115.9 70.054,120.309 66.741,120.309 63.315C120.309 61.237,118.68 59.946,116.378 59.946C111.941 59.946,108.375 63.231,108.375 66.685C108.375 68.791,110.116 70.054,112.306 70.054"></path></g></g><g class="vf-stavenote" id="vf-auto1335"><g class="vf-notehead" id="vf-auto1343" pointer-events="bounding-box"><path stroke="none" d="M160.878 70.054C164.473 70.054,168.881 66.741,168.881 63.315C168.881 61.237,167.253 59.946,164.95 59.946C160.513 59.946,156.947 63.231,156.947 66.685C156.947 68.791,158.688 70.054,160.878 70.054"></path></g></g><g class="vf-stem" id="vf-auto1330" pointer-events="bounding-box"><path stroke-width="1.5" fill="none" d="M109.125 67L109.125 99.25"></path></g><g class="vf-stem" id="vf-auto1336" pointer-events="bounding-box"><path stroke-width="1.5" fill="none" d="M157.697 67L157.697 99.25"></path></g><g class="vf-beam" id="vf-auto1345"><path stroke="none" d="M108.375 100L108.375 95L157.947 95L157.947 100Z"></path><path stroke="none" d="M108.375 92.5L108.375 87.5L157.947 87.5L157.947 92.5Z"></path></g>
</svg>