<svg xmlns="http://www.w3.org/2000/svg" width="200" height="120" viewBox="0 0 200 120">
<g class="vf-stavenote" id="vf-auto1070"><g class="vf-notehead" id="vf-auto1088" pointer-events="bounding-box"><path stroke="none" d="M25.931 70.054C29.525 70.054,33.934 66.741,33.934 63.315C33.934 61.237,32.305 59.946,30.003 59.946C25.566 59.946,22 63.231,22 66.685C22 68.791,23.741 70.054,25.931 70.054"></path></g></g><g class="vf-stavenote" id="vf-auto1076"><g class="vf-notehead" id="vf-auto1090" pointer-events="bounding-box"><path stroke="none" d="M112.306 70.054C115.9 70.054,120.309 66.741,120.309 63.315C120.309 61.237,118.68 59.946,116.378 59.946C111.941 59.946,108.375 63.231,108.375 66.685C108.375 68.791,110.116 70.054,112.306 70.054"></path></g></g><g class="vf-stavenote" id="vf-auto1082"><g class="vf-notehead" id="vf-auto1092" pointer-events="bounding-box"><path stroke="none" d="M160.878 70.054C164.473 70.054,168.881 66.741,168.881 63.315C168.881 61.237,167.253 59.946,164.95 59.946C160.513 59.946,156.947 63.231,156.947 66.685C156.947 68.791,158.688 70.054,160.878 70.054"></path></g></g><g class="vf-stem" id="vf-auto1071" pointer-events="bounding-box"><path stroke-width="1.5" fill="none" d="M22.75 67L22.75 99.25"></path></g><g class="vf-stem" id="vf-auto1077" pointer-events="bounding-box"><path stroke-width="1.5" fill="none" d="M109.125 67L109.125 99.25"></path></g><g class="vf-stem" id="vf-auto1083" pointer-events="bounding-box"><path stroke-width="1.5" fill="none" d="M157.697 67L157.697 99.25"></path></g><g class="vf-beam" id="vf-auto1094"><path stroke="none" d="M22 100L22 95L157.947 95L157.947 100Z"></path><path stroke="none" d="M108.375 92.5L108.375 87.5L157.947 87.5L157.947 92.5Z"></path></g>
</svg>