<svg xmlns="http://www.w3.org/2000/svg" width="200" height="120" viewBox="0 0 200 120">
<g class="vf-stavenote" id="vf-auto1033"><g class="vf-notehead" id="vf-auto1057" pointer-events="bounding-box"><path stroke="none" d="M25.931 70.054C29.525 70.054,33.934 66.741,33.934 63.315C33.934 61.237,32.305 59.946,30.003 59.946C25.566 59.946,22 63.231,22 66.685C22 68.791,23.741 70.054,25.931 70.054"></path></g></g><g class="vf-stavenote" id="vf-auto1039"><g class="vf-notehead" id="vf-auto1059" pointer-events="bounding-box"><path stroke="none" d="M71.264 70.054C74.859 70.054,79.267 66.741,79.267 63.315C79.267 61.237,77.638 59.946,75.336 59.946C70.899 59.946,67.333 63.231,67.333 66.685C67.333 68.791,69.074 70.054,71.264 70.054"></path></g></g><g class="vf-stavenote" id="vf-auto1045"><g class="vf-notehead" id="vf-auto1061" pointer-events="bounding-box"><path stroke="none" d="M116.597 70.054C120.192 70.054,124.6 66.741,124.6 63.315C124.6 61.237,122.972 59.946,120.669 59.946C116.232 59.946,112.666 63.231,112.666 66.685C112.666 68.791,114.407 70.054,116.597 70.054"></path></g></g><g class="vf-stavenote" id="vf-auto1051"><g class="vf-notehead" id="vf-auto1063" pointer-events="bounding-box"><path stroke="none" d="M161.931 70.054C165.525 70.054,169.933 66.741,169.933 63.315C169.933 61.237,168.305 59.946,166.002 59.946C161.566 59.946,157.999 63.231,157.999 66.685C157.999 68.791,159.74 70.054,161.931 70.054"></path></g></g><g class="vf-stem" id="vf-auto1034" pointer-events="bounding-box"><path stroke-width="1.5" fill="none" d="M22.75 67L22.75 99.25"></path></g><g class="vf-stem" id="vf-auto1040" pointer-events="bounding-box"><path stroke-width="1.5" fill="none" d="M68.083 67L68.083 99.25"></path></g><g class="vf-stem" id="vf-auto1046" pointer-events="bounding-box"><path stroke-width="1.5" fill="none" d="M113.416 67L113.416 99.25"></path></g><g class="vf-stem" id="vf-auto1052" pointer-events="bounding-box"><path stroke-width="1.5" fill="none" d="M158.749 67L158.749 99.25"></path></g><g class="vf-beam" id="vf-auto1065"><path stroke="none" d="M22 100L22 95L158.999 95L158.999 100Z"></path><path stroke="none" d="M22 92.5L22 87.5L158.999 87.5L158.999 92.5Z"></path></g>
</svg>