<svg xmlns="http://www.w3.org/2000/svg" width="200" height="120" viewBox="0 0 200 120">
<style>path[fill="none"]{stroke:#000;}</style>
<g class="vf-stavenote" id="vf-auto1195"><g class="vf-notehead" id="vf-auto1213" pointer-events="bounding-box"><path stroke="none" d="M25.931 70.054C29.525 70.054,33.934 66.741,33.934 63.315C33.934 61.237,32.305 59.946,30.003 59.946C25.566 59.946,22 63.231,22 66.685C22 68.791,23.741 70.054,25.931 70.054"></path></g></g><g class="vf-stavenote" id="vf-auto1201"><g class="vf-notehead" id="vf-auto1215" pointer-events="bounding-box"><path stroke="none" d="M74.503 70.054C78.098 70.054,82.506 66.741,82.506 63.315C82.506 61.237,80.878 59.946,78.575 59.946C74.138 59.946,70.572 63.231,70.572 66.685C70.572 68.791,72.313 70.054,74.503 70.054"></path></g></g><g class="vf-stavenote" id="vf-auto1207"><g class="vf-notehead" id="vf-auto1217" pointer-events="bounding-box"><path stroke="none" d="M160.878 70.054C164.473 70.054,168.881 66.741,168.881 63.315C168.881 61.237,167.253 59.946,164.95 59.946C160.513 59.946,156.947 63.231,156.947 66.685C156.947 68.791,158.688 70.054,160.878 70.054"></path></g></g><g class="vf-stem" id="vf-auto1196" pointer-events="bounding-box"><path stroke-width="1.5" fill="none" d="M22.75 67L22.75 99.25"></path></g><g class="vf-stem" id="vf-auto1202" pointer-events="bounding-box"><path stroke-width="1.5" fill="none" d="M71.322 67L71.322 99.25"></path></g><g class="vf-stem" id="vf-auto1208" pointer-events="bounding-box"><path stroke-width="1.5" fill="none" d="M157.697 67L157.697 99.25"></path></g><g class="vf-beam" id="vf-auto1219"><path stroke="none" d="M22 100L22 95L157.947 95L157.947 100Z"></path><path stroke="none" d="M22 92.5L22 87.5L33 87.5L33 92.5Z"></path><path stroke="none" d="M156.947 92.5L156.947 87.5L147.947 87.5L147.947 92.5Z"></path></g>
</svg>