<svg xmlns="http://www.w3.org/2000/svg" width="200" height="120" viewBox="0 0 200 120">
<g class="vf-stavenote" id="vf-auto1278"><g class="vf-notehead" id="vf-auto1291" pointer-events="bounding-box"><path stroke="none" d="M25.931 70.054C29.525 70.054,33.934 66.741,33.934 63.315C33.934 61.237,32.305 59.946,30.003 59.946C25.566 59.946,22 63.231,22 66.685C22 68.791,23.741 70.054,25.931 70.054"></path></g></g><g class="vf-stavenote" id="vf-auto1284"><g class="vf-notehead" id="vf-auto1293" pointer-events="bounding-box"><path stroke="none" d="M71.919 70.054C75.513 70.054,79.922 66.741,79.922 63.315C79.922 61.237,78.293 59.946,75.991 59.946C71.554 59.946,67.988 63.231,67.988 66.685C67.988 68.791,69.729 70.054,71.919 70.054"></path><path stroke="none" d="M86.922 60 A2 2 0 0 0 82.922 60 A2 2 0 0 0 86.922 60"></path></g></g><g class="vf-stem" id="vf-auto1279" pointer-events="bounding-box"><path stroke-width="1.5" fill="none" d="M22.75 67L22.75 99.25"></path></g><g class="vf-stem" id="vf-auto1285" pointer-events="bounding-box"><path stroke-width="1.5" fill="none" d="M68.738 67L68.738 99.25"></path></g><g class="vf-beam" id="vf-auto1295"><path stroke="none" d="M22 100L22 95L68.988 95L68.988 100Z"></path><path stroke="none" d="M22 92.5L22 87.5L33 87.5L33 92.5Z"></path></g>
</svg>