<svg xmlns="http://www.w3.org/2000/svg" width="400" height="120" viewBox="0 0 400 120">
<g class="vf-stavenote" id="vf-auto1383"><g class="vf-stem" id="vf-auto1384" pointer-events="bounding-box"><path stroke-width="1.5" fill="none" d="M22.75 67L22.75 100"></path></g><g class="vf-notehead" id="vf-auto1395" pointer-events="bounding-box"><path stroke="none" d="M25.931 70.054C29.525 70.054,33.934 66.741,33.934 63.315C33.934 61.237,32.305 59.946,30.003 59.946C25.566 59.946,22 63.231,22 66.685C22 68.791,23.741 70.054,25.931 70.054"></path></g></g><g class="vf-stavenote" id="vf-auto1387"><g class="vf-stem" id="vf-auto1388" pointer-events="bounding-box"><path stroke-width="1.5" fill="none" d="M139.105 67L139.105 100"></path></g><g class="vf-notehead" id="vf-auto1396" pointer-events="bounding-box"><path stroke="none" d="M142.287 70.054C145.881 70.054,150.289 66.741,150.289 63.315C150.289 61.237,148.661 59.946,146.358 59.946C141.921 59.946,138.355 63.231,138.355 66.685C138.355 68.791,140.096 70.054,142.287 70.054"></path></g></g><g class="vf-stavenote" id="vf-auto1391"><g class="vf-stem" id="vf-auto1392" pointer-events="bounding-box"><path stroke-width="1.5" fill="none" d="M255.461 67L255.461 100"></path></g><g class="vf-notehead" id="vf-auto1397" pointer-events="bounding-box"><path stroke="none" d="M258.642 70.054C262.236 70.054,266.645 66.741,266.645 63.315C266.645 61.237,265.016 59.946,262.713 59.946C258.277 59.946,254.711 63.231,254.711 66.685C254.711 68.791,256.452 70.054,258.642 70.054"></path></g></g><rect x="17" y="45" width="117.706" height="1" stroke="none"></rect><rect x="153.939" y="45" width="117.706" height="1" stroke="none"></rect><rect x="17" y="45" width="1" height="10" stroke="none"></rect><rect x="271.645" y="45" width="1" height="10" stroke="none"></rect><path stroke="none" d="M144.878 38.785C144.845 38.785,144.828 38.785,144.777 38.785L144.609 38.752C144.575 38.752,144.541 38.752,144.508 38.752C142.419 38.752,140.329 40.15,140.329 41.43C140.329 42.222,140.801 43.301,142.301 43.385L142.419 43.385C143.497 43.385,144.019 42.61,144.019 41.818L144.019 41.616C143.952 40.723,143.345 40.672,143.227 40.622C143.109 40.571,142.739 40.622,142.739 40.285L142.739 40.184C142.789 39.779,143.547 39.577,143.75 39.577C145.822 39.577,146.007 40.874,146.007 41.447L146.007 41.616C146.007 43.418,144.575 44.126,143.059 44.193C142.806 44.21,142.469 44.345,142.469 44.598C142.469 44.901,142.89 44.901,143.076 44.901C145.872 44.901,146.091 46.788,146.091 47.108C146.091 49.669,144.777 49.972,144.238 49.972C144.154 49.972,144.053 49.939,144.019 49.939C143.834 49.922,143.362 49.922,143.345 49.551L143.345 49.433C143.345 48.894,143.884 48.54,143.901 47.833C143.901 46.822,143.194 46.08,142.149 46.08C142.065 46.08,141.98 46.08,141.896 46.114C141.475 46.182,141.02 46.417,140.717 46.738C140.313 47.108,140.195 47.681,140.195 48.22C140.245 50.107,141.964 50.848,144.339 50.882L144.558 50.882C146.967 50.882,149.427 49.652,149.427 47.513L149.427 47.344C149.394 46.636,149.208 46.182,148.753 45.642C148.602 45.457,148.416 45.289,148.181 45.137L147.658 44.851L146.866 44.632C146.748 44.598,146.664 44.598,146.614 44.514C146.597 44.463,146.597 44.429,146.597 44.396C146.597 44.295,146.614 44.193,146.698 44.177C146.967 44.092,147.22 44.076,147.439 43.958C148.416 43.486,148.922 42.862,148.922 41.751C148.922 39.51,145.889 38.853,144.878 38.785"></path>
</svg>