<svg xmlns="http://www.w3.org/2000/svg" width="200" height="120" viewBox="0 0 200 120">
<g class="vf-stavenote" id="vf-auto1246"><g class="vf-notehead" id="vf-auto1264" pointer-events="bounding-box"><path stroke="none" d="M25.931 70.054C29.525 70.054,33.934 66.741,33.934 63.315C33.934 61.237,32.305 59.946,30.003 59.946C25.566 59.946,22 63.231,22 66.685C22 68.791,23.741 70.054,25.931 70.054"></path></g></g><g class="vf-stavenote" id="vf-auto1252"><g class="vf-notehead" id="vf-auto1266" pointer-events="bounding-box"><path stroke="none" d="M85.931 70.054C89.525 70.054,93.934 66.741,93.934 63.315C93.934 61.237,92.305 59.946,90.003 59.946C85.566 59.946,82 63.231,82 66.685C82 68.791,83.741 70.054,85.931 70.054"></path></g></g><g class="vf-stavenote" id="vf-auto1258"><g class="vf-notehead" id="vf-auto1268" pointer-events="bounding-box"><path stroke="none" d="M145.931 70.054C149.525 70.054,153.934 66.741,153.934 63.315C153.934 61.237,152.305 59.946,150.003 59.946C145.566 59.946,142 63.231,142 66.685C142 68.791,143.741 70.054,145.931 70.054"></path></g></g><g class="vf-stem" id="vf-auto1247" pointer-events="bounding-box"><path stroke-width="1.5" fill="none" d="M22.75 67L22.75 99.25"></path></g><g class="vf-stem" id="vf-auto1253" pointer-events="bounding-box"><path stroke-width="1.5" fill="none" d="M82.75 67L82.75 99.25"></path></g><g class="vf-stem" id="vf-auto1259" pointer-events="bounding-box"><path stroke-width="1.5" fill="none" d="M142.75 67L142.75 99.25"></path></g><g class="vf-beam" id="vf-auto1270"><path stroke="none" d="M22 100L22 95L143 95L143 100Z"></path></g><rect x="17" y="45" width="61.351" height="1" stroke="none"></rect><rect x="97.583" y="45" width="61.351" height="1" stroke="none"></rect><rect x="17" y="45" width="1" height="10" stroke="none"></rect><rect x="158.934" y="45" width="1" height="10" stroke="none"></rect><path stroke="none" d="M88.523 38.785C88.489 38.785,88.472 38.785,88.422 38.785L88.253 38.752C88.22 38.752,88.186 38.752,88.152 38.752C86.063 38.752,83.974 40.15,83.974 41.43C83.974 42.222,84.446 43.301,85.945 43.385L86.063 43.385C87.141 43.385,87.664 42.61,87.664 41.818L87.664 41.616C87.596 40.723,86.99 40.672,86.872 40.622C86.754 40.571,86.383 40.622,86.383 40.285L86.383 40.184C86.434 39.779,87.192 39.577,87.394 39.577C89.466 39.577,89.652 40.874,89.652 41.447L89.652 41.616C89.652 43.418,88.22 44.126,86.703 44.193C86.451 44.21,86.114 44.345,86.114 44.598C86.114 44.901,86.535 44.901,86.72 44.901C89.517 44.901,89.736 46.788,89.736 47.108C89.736 49.669,88.422 49.972,87.883 49.972C87.799 49.972,87.697 49.939,87.664 49.939C87.478 49.922,87.007 49.922,86.99 49.551L86.99 49.433C86.99 48.894,87.529 48.54,87.546 47.833C87.546 46.822,86.838 46.08,85.794 46.08C85.709 46.08,85.625 46.08,85.541 46.114C85.12 46.182,84.665 46.417,84.362 46.738C83.957 47.108,83.839 47.681,83.839 48.22C83.89 50.107,85.608 50.848,87.984 50.882L88.203 50.882C90.612 50.882,93.072 49.652,93.072 47.513L93.072 47.344C93.038 46.636,92.853 46.182,92.398 45.642C92.246 45.457,92.061 45.289,91.825 45.137L91.303 44.851L90.511 44.632C90.393 44.598,90.309 44.598,90.258 44.514C90.241 44.463,90.241 44.429,90.241 44.396C90.241 44.295,90.258 44.193,90.343 44.177C90.612 44.092,90.865 44.076,91.084 43.958C92.061 43.486,92.567 42.862,92.567 41.751C92.567 39.51,89.534 38.853,88.523 38.785"></path>
</svg>