<svg xmlns="http://www.w3.org/2000/svg" width="200" height="120" viewBox="0 0 200 120">
<style>path[fill="none"]{stroke:#000;}</style>
<g class="vf-stavenote" id="vf-auto1099"><g class="vf-notehead" id="vf-auto1117" pointer-events="bounding-box"><path stroke="none" d="M25.931 70.054C29.525 70.054,33.934 66.741,33.934 63.315C33.934 61.237,32.305 59.946,30.003 59.946C25.566 59.946,22 63.231,22 66.685C22 68.791,23.741 70.054,25.931 70.054"></path></g></g><g class="vf-stavenote" id="vf-auto1105"><g class="vf-notehead" id="vf-auto1119" pointer-events="bounding-box"><path stroke="none" d="M65.385 70.054C68.979 70.054,73.387 66.741,73.387 63.315C73.387 61.237,71.759 59.946,69.456 59.946C65.02 59.946,61.453 63.231,61.453 66.685C61.453 68.791,63.194 70.054,65.385 70.054"></path></g></g><g class="vf-stavenote" id="vf-auto1111"><g class="vf-notehead" id="vf-auto1121" pointer-events="bounding-box"><path stroke="none" d="M104.838 70.054C108.432 70.054,112.841 66.741,112.841 63.315C112.841 61.237,111.212 59.946,108.91 59.946C104.473 59.946,100.907 63.231,100.907 66.685C100.907 68.791,102.648 70.054,104.838 70.054"></path></g></g><g class="vf-stem" id="vf-auto1100" pointer-events="bounding-box"><path stroke-width="1.5" fill="none" d="M22.75 67L22.75 99.25"></path></g><g class="vf-stem" id="vf-auto1106" pointer-events="bounding-box"><path stroke-width="1.5" fill="none" d="M62.203 67L62.203 99.25"></path></g><g class="vf-stem" id="vf-auto1112" pointer-events="bounding-box"><path stroke-width="1.5" fill="none" d="M101.657 67L101.657 99.25"></path></g><g class="vf-beam" id="vf-auto1123"><path stroke="none" d="M22 100L22 95L101.907 95L101.907 100Z"></path><path stroke="none" d="M22 92.5L22 87.5L62.453 87.5L62.453 92.5Z"></path></g>
</svg>