<svg xmlns="http://www.w3.org/2000/svg" width="200" height="120" viewBox="0 0 200 120">
<g class="vf-stavenote" id="vf-auto1012"><g class="vf-notehead" id="vf-auto1024" pointer-events="bounding-box"><path stroke="none" d="M25.931 70.054C29.525 70.054,33.934 66.741,33.934 63.315C33.934 61.237,32.305 59.946,30.003 59.946C25.566 59.946,22 63.231,22 66.685C22 68.791,23.741 70.054,25.931 70.054"></path></g></g><g class="vf-stavenote" id="vf-auto1018"><g class="vf-notehead" id="vf-auto1026" pointer-events="bounding-box"><path stroke="none" d="M100.464 70.054C104.058 70.054,108.467 66.741,108.467 63.315C108.467 61.237,106.838 59.946,104.536 59.946C100.099 59.946,96.533 63.231,96.533 66.685C96.533 68.791,98.274 70.054,100.464 70.054"></path></g></g><g class="vf-stem" id="vf-auto1013" pointer-events="bounding-box"><path stroke-width="1.5" fill="none" d="M22.75 67L22.75 99.25"></path></g><g class="vf-stem" id="vf-auto1019" pointer-events="bounding-box"><path stroke-width="1.5" fill="none" d="M97.283 67L97.283 99.25"></path></g><g class="vf-beam" id="vf-auto1028"><path stroke="none" d="M22 100L22 95L97.533 95L97.533 100Z"></path></g>
</svg>