<svg xmlns="http://www.w3.org/2000/svg" width="240" height="120" viewBox="0 0 240 120">
<style>path[fill="none"]{stroke:#000;}</style>
<g class="vf-stavenote" id="vf-auto1666"><g class="vf-stem" id="vf-auto1667" pointer-events="bounding-box"><path stroke-width="1.5" fill="none" d="M22.75 67.65L22.75 100"></path></g><g class="vf-notehead" id="vf-auto1670" pointer-events="bounding-box"><path stroke="none" d="M25.931 70.054C32.586 70.054,33.934 64.635,33.934 63.315C33.934 61.237,32.277 59.946,29.919 59.946C23.909 59.946,22 64.607,22 66.685C22 68.847,23.685 70.054,25.931 70.054M25.033 68.51C24.19 68.51,23.685 68.061,23.404 67.583C23.292 67.359,23.179 67.05,23.179 66.769C23.179 64.803,29.048 61.602,30.929 61.602C31.716 61.602,32.137 61.967,32.446 62.445C32.558 62.697,32.67 62.95,32.67 63.231C32.67 64.972,26.97 68.51,25.033 68.51"></path></g></g><g class="vf-stavenote" id="vf-auto1671"><g class="vf-notehead" id="vf-auto1674" pointer-events="bounding-box"><path stroke="none" d="M154.984 66.544C155.63 67.359,156.22 68.117,156.725 68.959C156.809 69.128,156.978 69.437,156.978 69.521C156.978 69.577,156.978 69.661,156.922 69.689C156.865 69.858,156.697 69.886,156.5 69.886C156.332 69.886,155.995 69.802,155.854 69.774C155.798 69.774,155.714 69.774,155.686 69.774L155.349 69.661C153.243 69.661,151.867 71.543,151.867 73.536C151.867 75.558,153.608 77.524,156.556 79.798C156.893 80.051,157.287 80.163,157.624 80.163C157.904 80.163,158.185 80.079,158.241 79.91C158.269 79.798,158.297 79.714,158.297 79.63C158.297 79.265,157.989 78.956,157.652 78.675C157.146 78.675,156.697 77.58,156.613 77.215C156.5 76.878,156.444 76.513,156.444 76.148C156.444 74.491,157.287 73.199,158.999 73.199C160.179 73.199,161.499 73.649,162.201 73.901L162.229 73.929C162.397 73.986,162.481 73.986,162.566 73.986C162.678 73.986,162.762 73.929,162.762 73.817C162.762 73.34,161.695 71.992,161.274 71.515C159.73 69.661,158.466 68.145,158.466 65.899C158.466 65.842,158.466 65.814,158.466 65.758L158.522 65.477C158.522 65.449,158.522 65.393,158.522 65.365C158.662 63.006,160.123 61.069,161.19 59.412C161.302 59.216,161.33 59.019,161.33 58.822C161.33 58.401,161.19 58.036,161.19 58.036C161.19 58.036,155.209 50.932,154.507 50.23C154.31 50.033,154.029 49.921,153.777 49.921C153.383 49.921,152.962 50.202,152.962 50.763C152.962 50.96,153.018 51.185,153.131 51.409C153.299 51.859,155.602 53.908,155.602 56.829C155.602 58.317,154.984 60.058,153.187 61.967C152.766 62.36,152.597 62.81,152.597 63.147C152.597 63.708,153.018 64.101,153.018 64.101"></path></g></g>
</svg>