<svg xmlns="http://www.w3.org/2000/svg" width="240" height="120" viewBox="0 0 240 120">
<style>path[fill="none"]{stroke:#000;}</style>
<g class="vf-stavenote" id="vf-auto1922"><g class="vf-stem" id="vf-auto1923" pointer-events="bounding-box"><path stroke-width="1.5" fill="none" d="M22.75 67.65L22.75 100"></path></g><g class="vf-notehead" id="vf-auto1926" pointer-events="bounding-box"><path stroke="none" d="M25.931 70.054C32.586 70.054,33.934 64.635,33.934 63.315C33.934 61.237,32.277 59.946,29.919 59.946C23.909 59.946,22 64.607,22 66.685C22 68.847,23.685 70.054,25.931 70.054M25.033 68.51C24.19 68.51,23.685 68.061,23.404 67.583C23.292 67.359,23.179 67.05,23.179 66.769C23.179 64.803,29.048 61.602,30.929 61.602C31.716 61.602,32.137 61.967,32.446 62.445C32.558 62.697,32.67 62.95,32.67 63.231C32.67 64.972,26.97 68.51,25.033 68.51"></path></g></g><g class="vf-stavenote" id="vf-auto1927"><g class="vf-notehead" id="vf-auto1933" pointer-events="bounding-box"><path stroke="none" d="M161.121 70.054C164.715 70.054,169.123 66.741,169.123 63.315C169.123 61.237,167.495 59.946,165.192 59.946C160.755 59.946,157.189 63.231,157.189 66.685C157.189 68.791,158.93 70.054,161.121 70.054"></path></g></g><g class="vf-stavenote" id="vf-auto1935"><g class="vf-notehead" id="vf-auto1941" pointer-events="bounding-box"><path stroke="none" d="M203.871 70.054C207.465 70.054,211.874 66.741,211.874 63.315C211.874 61.237,210.245 59.946,207.943 59.946C203.506 59.946,199.94 63.231,199.94 66.685C199.94 68.791,201.681 70.054,203.871 70.054"></path></g></g><g class="vf-stem" id="vf-auto1928" pointer-events="bounding-box"><path stroke-width="1.5" fill="none" d="M157.939 67L157.939 99.25"></path></g><g class="vf-stem" id="vf-auto1936" pointer-events="bounding-box"><path stroke-width="1.5" fill="none" d="M200.69 67L200.69 99.25"></path></g><g class="vf-beam" id="vf-auto1943"><path stroke="none" d="M157.189 100L157.189 95L200.94 95L200.94 100Z"></path></g>
</svg>