<svg xmlns="http://www.w3.org/2000/svg" width="240" height="120" viewBox="0 0 240 120">
<style>path[fill="none"]{stroke:#000;}</style>
<g class="vf-stavenote" id="vf-auto1660"><g class="vf-stem" id="vf-auto1661" pointer-events="bounding-box"><path stroke-width="1.5" fill="none" d="M22.75 67L22.75 100"></path></g><g class="vf-notehead" id="vf-auto1664" pointer-events="bounding-box"><path stroke="none" d="M25.931 70.054C29.525 70.054,33.934 66.741,33.934 63.315C33.934 61.237,32.305 59.946,30.003 59.946C25.566 59.946,22 63.231,22 66.685C22 68.791,23.741 70.054,25.931 70.054"></path></g></g><g class="vf-stavenote" id="vf-auto1665"><g class="vf-stem" id="vf-auto1666" pointer-events="bounding-box"><path stroke-width="1.5" fill="none" d="M82.687 67.65L82.687 100"></path></g><g class="vf-notehead" id="vf-auto1669" pointer-events="bounding-box"><path stroke="none" d="M85.868 70.054C92.523 70.054,93.871 64.635,93.871 63.315C93.871 61.237,92.214 59.946,89.855 59.946C83.846 59.946,81.937 64.607,81.937 66.685C81.937 68.847,83.621 70.054,85.868 70.054M84.969 68.51C84.127 68.51,83.621 68.061,83.341 67.583C83.228 67.359,83.116 67.05,83.116 66.769C83.116 64.803,88.985 61.602,90.866 61.602C91.652 61.602,92.073 61.967,92.382 62.445C92.495 62.697,92.607 62.95,92.607 63.231C92.607 64.972,86.907 68.51,84.969 68.51"></path></g></g>
</svg>