<svg xmlns="http://www.w3.org/2000/svg" width="240" height="120" viewBox="0 0 240 120">
<style>path[fill="none"]{stroke:#000;}</style>
<g class="vf-stavenote" id="vf-auto1736"><g class="vf-stem" id="vf-auto1737" pointer-events="bounding-box"><path stroke-width="1.5" fill="none" d="M22.75 67L22.75 100"></path></g><g class="vf-notehead" id="vf-auto1740" pointer-events="bounding-box"><path stroke="none" d="M25.931 70.054C29.525 70.054,33.934 66.741,33.934 63.315C33.934 61.237,32.305 59.946,30.003 59.946C25.566 59.946,22 63.231,22 66.685C22 68.791,23.741 70.054,25.931 70.054"></path></g></g><g class="vf-stavenote" id="vf-auto1741"><g class="vf-stem" id="vf-auto1742" pointer-events="bounding-box"><path stroke-width="1.5" fill="none" d="M86.118 67L86.118 100"></path></g><g class="vf-notehead" id="vf-auto1745" pointer-events="bounding-box"><path stroke="none" d="M89.3 70.054C92.894 70.054,97.302 66.741,97.302 63.315C97.302 61.237,95.674 59.946,93.371 59.946C88.934 59.946,85.368 63.231,85.368 66.685C85.368 68.791,87.109 70.054,89.3 70.054"></path></g></g><g class="vf-stavenote" id="vf-auto1746"><g class="vf-notehead" id="vf-auto1749" pointer-events="bounding-box"><path stroke="none" d="M151.882 66.544C152.527 67.359,153.117 68.117,153.623 68.959C153.707 69.128,153.875 69.437,153.875 69.521C153.875 69.577,153.875 69.661,153.819 69.689C153.763 69.858,153.594 69.886,153.398 69.886C153.229 69.886,152.892 69.802,152.752 69.774C152.696 69.774,152.612 69.774,152.584 69.774L152.247 69.661C150.141 69.661,148.765 71.543,148.765 73.536C148.765 75.558,150.506 77.524,153.454 79.798C153.791 80.051,154.184 80.163,154.521 80.163C154.802 80.163,155.083 80.079,155.139 79.91C155.167 79.798,155.195 79.714,155.195 79.63C155.195 79.265,154.886 78.956,154.549 78.675C154.044 78.675,153.594 77.58,153.51 77.215C153.398 76.878,153.342 76.513,153.342 76.148C153.342 74.491,154.184 73.199,155.897 73.199C157.076 73.199,158.396 73.649,159.098 73.901L159.126 73.929C159.295 73.986,159.379 73.986,159.463 73.986C159.576 73.986,159.66 73.929,159.66 73.817C159.66 73.34,158.593 71.992,158.172 71.515C156.627 69.661,155.364 68.145,155.364 65.899C155.364 65.842,155.364 65.814,155.364 65.758L155.42 65.477C155.42 65.449,155.42 65.393,155.42 65.365C155.56 63.006,157.02 61.069,158.087 59.412C158.2 59.216,158.228 59.019,158.228 58.822C158.228 58.401,158.087 58.036,158.087 58.036C158.087 58.036,152.106 50.932,151.404 50.23C151.208 50.033,150.927 49.921,150.674 49.921C150.281 49.921,149.86 50.202,149.86 50.763C149.86 50.96,149.916 51.185,150.028 51.409C150.197 51.859,152.499 53.908,152.499 56.829C152.499 58.317,151.882 60.058,150.084 61.967C149.663 62.36,149.495 62.81,149.495 63.147C149.495 63.708,149.916 64.101,149.916 64.101"></path></g></g>
</svg>