<svg xmlns="http://www.w3.org/2000/svg" width="240" height="120" viewBox="0 0 240 120">
<style>path[fill="none"]{stroke:#000;}</style>
<g class="vf-stavenote" id="vf-auto1915"><g class="vf-stem" id="vf-auto1916" pointer-events="bounding-box"><path stroke-width="1.5" fill="none" d="M22.75 67L22.75 100"></path></g><g class="vf-notehead" id="vf-auto1919" pointer-events="bounding-box"><path stroke="none" d="M25.931 70.054C29.525 70.054,33.934 66.741,33.934 63.315C33.934 61.237,32.305 59.946,30.003 59.946C25.566 59.946,22 63.231,22 66.685C22 68.791,23.741 70.054,25.931 70.054"></path></g></g><g class="vf-stavenote" id="vf-auto1920"><g class="vf-stem" id="vf-auto1921" pointer-events="bounding-box"><path stroke-width="1.5" fill="none" d="M88.881 67L88.881 100"></path></g><g class="vf-notehead" id="vf-auto1924" pointer-events="bounding-box"><path stroke="none" d="M92.063 70.054C95.657 70.054,100.065 66.741,100.065 63.315C100.065 61.237,98.437 59.946,96.134 59.946C91.698 59.946,88.131 63.231,88.131 66.685C88.131 68.791,89.872 70.054,92.063 70.054"></path></g></g><g class="vf-stavenote" id="vf-auto1925"><g class="vf-notehead" id="vf-auto1941" pointer-events="bounding-box"><path stroke="none" d="M158.194 70.054C161.788 70.054,166.197 66.741,166.197 63.315C166.197 61.237,164.568 59.946,162.266 59.946C157.829 59.946,154.263 63.231,154.263 66.685C154.263 68.791,156.004 70.054,158.194 70.054"></path></g></g><g class="vf-stavenote" id="vf-auto1933"><g class="vf-notehead" id="vf-auto1943" pointer-events="bounding-box"><path stroke="none" d="M203.249 70.054C206.843 70.054,211.252 66.741,211.252 63.315C211.252 61.237,209.623 59.946,207.321 59.946C202.884 59.946,199.318 63.231,199.318 66.685C199.318 68.791,201.059 70.054,203.249 70.054"></path></g></g><g class="vf-stem" id="vf-auto1926" pointer-events="bounding-box"><path stroke-width="1.5" fill="none" d="M155.013 67L155.013 99.25"></path></g><g class="vf-stem" id="vf-auto1934" pointer-events="bounding-box"><path stroke-width="1.5" fill="none" d="M200.068 67L200.068 99.25"></path></g><g class="vf-beam" id="vf-auto1945"><path stroke="none" d="M154.263 100L154.263 95L200.318 95L200.318 100Z"></path></g>
</svg>