<svg xmlns="http://www.w3.org/2000/svg" width="240" height="120" viewBox="0 0 240 120">
<style>path[fill="none"]{stroke:#000;}</style>
<g class="vf-stavenote" id="vf-auto1718"><g class="vf-stem" id="vf-auto1719" pointer-events="bounding-box"><path stroke-width="1.5" fill="none" d="M22.75 67L22.75 100"></path></g><g class="vf-notehead" id="vf-auto1722" pointer-events="bounding-box"><path stroke="none" d="M25.931 70.054C29.525 70.054,33.934 66.741,33.934 63.315C33.934 61.237,32.305 59.946,30.003 59.946C25.566 59.946,22 63.231,22 66.685C22 68.791,23.741 70.054,25.931 70.054"></path></g></g><g class="vf-stavenote" id="vf-auto1723"><g class="vf-notehead" id="vf-auto1726" pointer-events="bounding-box"><path stroke="none" d="M88.167 66.544C88.813 67.359,89.402 68.117,89.908 68.959C89.992 69.128,90.161 69.437,90.161 69.521C90.161 69.577,90.161 69.661,90.104 69.689C90.048 69.858,89.88 69.886,89.683 69.886C89.515 69.886,89.178 69.802,89.037 69.774C88.981 69.774,88.897 69.774,88.869 69.774L88.532 69.661C86.426 69.661,85.05 71.543,85.05 73.536C85.05 75.558,86.791 77.524,89.739 79.798C90.076 80.051,90.47 80.163,90.806 80.163C91.087 80.163,91.368 80.079,91.424 79.91C91.452 79.798,91.48 79.714,91.48 79.63C91.48 79.265,91.172 78.956,90.835 78.675C90.329 78.675,89.88 77.58,89.796 77.215C89.683 76.878,89.627 76.513,89.627 76.148C89.627 74.491,90.47 73.199,92.182 73.199C93.362 73.199,94.682 73.649,95.384 73.901L95.412 73.929C95.58 73.986,95.664 73.986,95.749 73.986C95.861 73.986,95.945 73.929,95.945 73.817C95.945 73.34,94.878 71.992,94.457 71.515C92.912 69.661,91.649 68.145,91.649 65.899C91.649 65.842,91.649 65.814,91.649 65.758L91.705 65.477C91.705 65.449,91.705 65.393,91.705 65.365C91.845 63.006,93.306 61.069,94.373 59.412C94.485 59.216,94.513 59.019,94.513 58.822C94.513 58.401,94.373 58.036,94.373 58.036C94.373 58.036,88.392 50.932,87.69 50.23C87.493 50.033,87.212 49.921,86.96 49.921C86.566 49.921,86.145 50.202,86.145 50.763C86.145 50.96,86.201 51.185,86.314 51.409C86.482 51.859,88.785 53.908,88.785 56.829C88.785 58.317,88.167 60.058,86.37 61.967C85.949 62.36,85.78 62.81,85.78 63.147C85.78 63.708,86.201 64.101,86.201 64.101"></path></g></g><g class="vf-stavenote" id="vf-auto1727"><g class="vf-stem" id="vf-auto1728" pointer-events="bounding-box"><path stroke-width="1.5" fill="none" d="M148.794 67L148.794 100"></path></g><g class="vf-notehead" id="vf-auto1731" pointer-events="bounding-box"><path stroke="none" d="M151.975 70.054C155.569 70.054,159.978 66.741,159.978 63.315C159.978 61.237,158.349 59.946,156.047 59.946C151.61 59.946,148.044 63.231,148.044 66.685C148.044 68.791,149.785 70.054,151.975 70.054"></path></g></g>
</svg>