<svg xmlns="http://www.w3.org/2000/svg" width="240" height="120" viewBox="0 0 240 120">
<style>path[fill="none"]{stroke:#000;}</style>
<g class="vf-stavenote" id="vf-auto2080"><g class="vf-notehead" id="vf-auto2101" pointer-events="bounding-box"><path stroke="none" d="M25.931 70.054C29.525 70.054,33.934 66.741,33.934 63.315C33.934 61.237,32.305 59.946,30.003 59.946C25.566 59.946,22 63.231,22 66.685C22 68.791,23.741 70.054,25.931 70.054"></path></g></g><g class="vf-stavenote" id="vf-auto2088"><g class="vf-notehead" id="vf-auto2103" pointer-events="bounding-box"><path stroke="none" d="M62.556 70.054C66.15 70.054,70.559 66.741,70.559 63.315C70.559 61.237,68.93 59.946,66.627 59.946C62.191 59.946,58.625 63.231,58.625 66.685C58.625 68.791,60.365 70.054,62.556 70.054"></path></g></g><g class="vf-stavenote" id="vf-auto2096"><g class="vf-stem" id="vf-auto2097" pointer-events="bounding-box"><path stroke-width="1.5" fill="none" d="M95.999 67.65L95.999 100"></path></g><g class="vf-notehead" id="vf-auto2100" pointer-events="bounding-box"><path stroke="none" d="M99.18 70.054C105.835 70.054,107.183 64.635,107.183 63.315C107.183 61.237,105.526 59.946,103.168 59.946C97.159 59.946,95.249 64.607,95.249 66.685C95.249 68.847,96.934 70.054,99.18 70.054M98.282 68.51C97.439 68.51,96.934 68.061,96.653 67.583C96.541 67.359,96.428 67.05,96.428 66.769C96.428 64.803,102.297 61.602,104.179 61.602C104.965 61.602,105.386 61.967,105.695 62.445C105.807 62.697,105.919 62.95,105.919 63.231C105.919 64.972,100.219 68.51,98.282 68.51"></path></g></g><g class="vf-stem" id="vf-auto2081" pointer-events="bounding-box"><path stroke-width="1.5" fill="none" d="M22.75 67L22.75 99.25"></path></g><g class="vf-stem" id="vf-auto2089" pointer-events="bounding-box"><path stroke-width="1.5" fill="none" d="M59.375 67L59.375 99.25"></path></g><g class="vf-beam" id="vf-auto2105"><path stroke="none" d="M22 100L22 95L59.625 95L59.625 100Z"></path></g>
</svg>