<svg xmlns="http://www.w3.org/2000/svg" width="240" height="120" viewBox="0 0 240 120">
<style>path[fill="none"]{stroke:#000;}</style>
<g class="vf-stavenote" id="vf-auto1196"><g class="vf-notehead" id="vf-auto1199" pointer-events="bounding-box"><path stroke="none" d="M27.419 60.676C27.419 59.187,26.212 57.952,24.696 57.952C23.207 57.952,22 59.187,22 60.676C22 61.518,22.477 62.248,23.095 62.726C23.741 63.175,24.499 63.428,25.285 63.428C25.847 63.428,26.409 63.315,26.858 63.147C27.419 62.978,27.784 62.81,28.318 62.529C28.402 62.501,28.458 62.501,28.515 62.501C28.683 62.501,28.711 62.641,28.711 62.866C28.711 62.978,28.711 63.147,28.683 63.315C28.543 63.905,25.65 71.964,24.92 74.631C24.92 75.109,25.847 75.137,26.072 75.137C26.521 75.137,27.082 75.081,27.504 74.744C27.616 74.66,31.575 60.479,31.575 60.479C31.744 59.749,31.94 59.103,31.996 58.907C31.996 58.485,31.575 58.289,31.491 58.261C31.435 58.261,31.294 58.261,31.07 58.401C30.761 58.654,28.739 61.069,27.419 61.069"></path></g></g><g class="vf-stavenote" id="vf-auto1200"><g class="vf-stem" id="vf-auto1201" pointer-events="bounding-box"><path stroke-width="1.5" fill="none" d="M82.687 67L82.687 100"></path></g><g class="vf-notehead" id="vf-auto1204" pointer-events="bounding-box"><path stroke="none" d="M85.868 70.054C89.462 70.054,93.871 66.741,93.871 63.315C93.871 61.237,92.242 59.946,89.939 59.946C85.503 59.946,81.937 63.231,81.937 66.685C81.937 68.791,83.678 70.054,85.868 70.054"></path></g></g>
</svg>