<svg xmlns="http://www.w3.org/2000/svg" width="240" height="120" viewBox="0 0 240 120">
<style>path[fill="none"]{stroke:#000;}</style>
<g class="vf-stavenote" id="vf-auto1158"><g class="vf-notehead" id="vf-auto1164" pointer-events="bounding-box"><path stroke="none" d="M25.931 70.054C29.525 70.054,33.934 66.741,33.934 63.315C33.934 61.237,32.305 59.946,30.003 59.946C25.566 59.946,22 63.231,22 66.685C22 68.791,23.741 70.054,25.931 70.054"></path></g></g><g class="vf-stavenote" id="vf-auto1166"><g class="vf-notehead" id="vf-auto1172" pointer-events="bounding-box"><path stroke="none" d="M89.599 70.054C93.193 70.054,97.602 66.741,97.602 63.315C97.602 61.237,95.973 59.946,93.671 59.946C89.234 59.946,85.668 63.231,85.668 66.685C85.668 68.791,87.409 70.054,89.599 70.054"></path></g></g><g class="vf-stavenote" id="vf-auto1174"><g class="vf-notehead" id="vf-auto1177" pointer-events="bounding-box"><path stroke="none" d="M154.755 60.676C154.755 59.187,153.548 57.952,152.031 57.952C150.543 57.952,149.336 59.187,149.336 60.676C149.336 61.518,149.813 62.248,150.431 62.726C151.077 63.175,151.835 63.428,152.621 63.428C153.183 63.428,153.744 63.315,154.194 63.147C154.755 62.978,155.12 62.81,155.654 62.529C155.738 62.501,155.794 62.501,155.85 62.501C156.019 62.501,156.047 62.641,156.047 62.866C156.047 62.978,156.047 63.147,156.019 63.315C155.878 63.905,152.986 71.964,152.256 74.631C152.256 75.109,153.183 75.137,153.407 75.137C153.857 75.137,154.418 75.081,154.839 74.744C154.952 74.66,158.911 60.479,158.911 60.479C159.079 59.749,159.276 59.103,159.332 58.907C159.332 58.485,158.911 58.289,158.827 58.261C158.771 58.261,158.63 58.261,158.406 58.401C158.097 58.654,156.075 61.069,154.755 61.069"></path></g></g><g class="vf-stem" id="vf-auto1159" pointer-events="bounding-box"><path stroke-width="1.5" fill="none" d="M22.75 67L22.75 99.25"></path></g><g class="vf-stem" id="vf-auto1167" pointer-events="bounding-box"><path stroke-width="1.5" fill="none" d="M86.418 67L86.418 99.25"></path></g><g class="vf-beam" id="vf-auto1178"><path stroke="none" d="M22 100L22 95L86.668 95L86.668 100Z"></path></g>
</svg>