<svg xmlns="http://www.w3.org/2000/svg" width="240" height="120" viewBox="0 0 240 120">
<style>path[fill="none"]{stroke:#000;}</style>
<g class="vf-stavenote" id="vf-auto1110"><g class="vf-stem" id="vf-auto1111" pointer-events="bounding-box"><path stroke-width="1.5" fill="none" d="M22.75 67L22.75 97"></path></g><g class="vf-notehead" id="vf-auto1116" pointer-events="bounding-box"><path stroke="none" d="M25.931 70.054C29.525 70.054,33.934 66.741,33.934 63.315C33.934 61.237,32.305 59.946,30.003 59.946C25.566 59.946,22 63.231,22 66.685C22 68.791,23.741 70.054,25.931 70.054"></path></g><path stroke="none" d="M31.716 71.28C32.277 72.965,32.558 74.987,32.558 76.812C32.558 79.199,31.547 82.597,30.929 83.973C29.441 87.37,27.419 90.628,22 92.453L22 101.972C22 102.365,22.337 102.562,22.646 102.562C23.011 102.562,23.544 102.337,23.629 101.663C24.303 97.844,27.307 94.306,29.357 91.133C31.912 87.118,34.383 82.316,34.383 77.262C34.383 74.088,33.569 71.224,33.232 69.933C33.12 69.483,32.867 69.315,32.586 69.315C31.996 69.315,31.294 70.101,31.716 71.28"></path></g><g class="vf-stavenote" id="vf-auto1118"><g class="vf-notehead" id="vf-auto1121" pointer-events="bounding-box"><path stroke="none" d="M90.441 60.676C90.441 59.187,89.234 57.952,87.718 57.952C86.229 57.952,85.022 59.187,85.022 60.676C85.022 61.518,85.499 62.248,86.117 62.726C86.763 63.175,87.521 63.428,88.307 63.428C88.869 63.428,89.431 63.315,89.88 63.147C90.441 62.978,90.806 62.81,91.34 62.529C91.424 62.501,91.48 62.501,91.537 62.501C91.705 62.501,91.733 62.641,91.733 62.866C91.733 62.978,91.733 63.147,91.705 63.315C91.565 63.905,88.672 71.964,87.942 74.631C87.942 75.109,88.869 75.137,89.094 75.137C89.543 75.137,90.104 75.081,90.526 74.744C90.638 74.66,94.597 60.479,94.597 60.479C94.766 59.749,94.962 59.103,95.018 58.907C95.018 58.485,94.597 58.289,94.513 58.261C94.457 58.261,94.316 58.261,94.092 58.401C93.783 58.654,91.761 61.069,90.441 61.069"></path></g></g><g class="vf-stavenote" id="vf-auto1122"><g class="vf-stem" id="vf-auto1123" pointer-events="bounding-box"><path stroke-width="1.5" fill="none" d="M148.794 67L148.794 97"></path></g><g class="vf-notehead" id="vf-auto1128" pointer-events="bounding-box"><path stroke="none" d="M151.975 70.054C155.569 70.054,159.978 66.741,159.978 63.315C159.978 61.237,158.349 59.946,156.047 59.946C151.61 59.946,148.044 63.231,148.044 66.685C148.044 68.791,149.785 70.054,151.975 70.054"></path></g><path stroke="none" d="M157.76 71.28C158.321 72.965,158.602 74.987,158.602 76.812C158.602 79.199,157.591 82.597,156.973 83.973C155.485 87.37,153.463 90.628,148.044 92.453L148.044 101.972C148.044 102.365,148.381 102.562,148.69 102.562C149.055 102.562,149.588 102.337,149.673 101.663C150.347 97.844,153.351 94.306,155.401 91.133C157.956 87.118,160.427 82.316,160.427 77.262C160.427 74.088,159.613 71.224,159.276 69.933C159.164 69.483,158.911 69.315,158.63 69.315C158.04 69.315,157.338 70.101,157.76 71.28"></path></g>
</svg>