<svg xmlns="http://www.w3.org/2000/svg" width="240" height="120" viewBox="0 0 240 120">
<style>path[fill="none"]{stroke:#000;}</style>
<g class="vf-stavenote" id="vf-auto1109"><g class="vf-notehead" id="vf-auto1112" pointer-events="bounding-box"><path stroke="none" d="M27.419 60.676C27.419 59.187,26.212 57.952,24.696 57.952C23.207 57.952,22 59.187,22 60.676C22 61.518,22.477 62.248,23.095 62.726C23.741 63.175,24.499 63.428,25.285 63.428C25.847 63.428,26.409 63.315,26.858 63.147C27.419 62.978,27.784 62.81,28.318 62.529C28.402 62.501,28.458 62.501,28.515 62.501C28.683 62.501,28.711 62.641,28.711 62.866C28.711 62.978,28.711 63.147,28.683 63.315C28.543 63.905,25.65 71.964,24.92 74.631C24.92 75.109,25.847 75.137,26.072 75.137C26.521 75.137,27.082 75.081,27.504 74.744C27.616 74.66,31.575 60.479,31.575 60.479C31.744 59.749,31.94 59.103,31.996 58.907C31.996 58.485,31.575 58.289,31.491 58.261C31.435 58.261,31.294 58.261,31.07 58.401C30.761 58.654,28.739 61.069,27.419 61.069"></path></g></g><g class="vf-stavenote" id="vf-auto1113"><g class="vf-notehead" id="vf-auto1119" pointer-events="bounding-box"><path stroke="none" d="M88.953 70.054C92.547 70.054,96.956 66.741,96.956 63.315C96.956 61.237,95.327 59.946,93.025 59.946C88.588 59.946,85.022 63.231,85.022 66.685C85.022 68.791,86.763 70.054,88.953 70.054"></path></g></g><g class="vf-stavenote" id="vf-auto1121"><g class="vf-notehead" id="vf-auto1127" pointer-events="bounding-box"><path stroke="none" d="M151.975 70.054C155.569 70.054,159.978 66.741,159.978 63.315C159.978 61.237,158.349 59.946,156.047 59.946C151.61 59.946,148.044 63.231,148.044 66.685C148.044 68.791,149.785 70.054,151.975 70.054"></path></g></g><g class="vf-stem" id="vf-auto1114" pointer-events="bounding-box"><path stroke-width="1.5" fill="none" d="M85.772 67L85.772 99.25"></path></g><g class="vf-stem" id="vf-auto1122" pointer-events="bounding-box"><path stroke-width="1.5" fill="none" d="M148.794 67L148.794 99.25"></path></g><g class="vf-beam" id="vf-auto1129"><path stroke="none" d="M85.022 100L85.022 95L149.044 95L149.044 100Z"></path></g>
</svg>