<svg xmlns="http://www.w3.org/2000/svg" width="240" height="120" viewBox="0 0 240 120">
<style>path[fill="none"]{stroke:#000;}</style>
<g class="vf-stavenote" id="vf-auto1394"><g class="vf-notehead" id="vf-auto1400" pointer-events="bounding-box"><path stroke="none" d="M25.931 70.054C29.525 70.054,33.934 66.741,33.934 63.315C33.934 61.237,32.305 59.946,30.003 59.946C25.566 59.946,22 63.231,22 66.685C22 68.791,23.741 70.054,25.931 70.054"></path></g></g><g class="vf-stavenote" id="vf-auto1402"><g class="vf-notehead" id="vf-auto1408" pointer-events="bounding-box"><path stroke="none" d="M84.625 70.054C88.219 70.054,92.628 66.741,92.628 63.315C92.628 61.237,90.999 59.946,88.697 59.946C84.26 59.946,80.694 63.231,80.694 66.685C80.694 68.791,82.435 70.054,84.625 70.054"></path></g></g><g class="vf-stavenote" id="vf-auto1410"><g class="vf-notehead" id="vf-auto1416" pointer-events="bounding-box"><path stroke="none" d="M124.613 70.054C128.207 70.054,132.615 66.741,132.615 63.315C132.615 61.237,130.987 59.946,128.684 59.946C124.247 59.946,120.681 63.231,120.681 66.685C120.681 68.791,122.422 70.054,124.613 70.054"></path></g></g><g class="vf-stavenote" id="vf-auto1418"><g class="vf-notehead" id="vf-auto1424" pointer-events="bounding-box"><path stroke="none" d="M164.6 70.054C168.194 70.054,172.603 66.741,172.603 63.315C172.603 61.237,170.974 59.946,168.672 59.946C164.235 59.946,160.669 63.231,160.669 66.685C160.669 68.791,162.41 70.054,164.6 70.054"></path></g></g><g class="vf-stavenote" id="vf-auto1426"><g class="vf-notehead" id="vf-auto1432" pointer-events="bounding-box"><path stroke="none" d="M204.588 70.054C208.182 70.054,212.59 66.741,212.59 63.315C212.59 61.237,210.962 59.946,208.659 59.946C204.223 59.946,200.656 63.231,200.656 66.685C200.656 68.791,202.397 70.054,204.588 70.054"></path></g></g><g class="vf-stem" id="vf-auto1395" pointer-events="bounding-box"><path stroke-width="1.5" fill="none" d="M22.75 67L22.75 99.25"></path></g><g class="vf-stem" id="vf-auto1403" pointer-events="bounding-box"><path stroke-width="1.5" fill="none" d="M81.444 67L81.444 99.25"></path></g><g class="vf-stem" id="vf-auto1411" pointer-events="bounding-box"><path stroke-width="1.5" fill="none" d="M121.431 67L121.431 99.25"></path></g><g class="vf-stem" id="vf-auto1419" pointer-events="bounding-box"><path stroke-width="1.5" fill="none" d="M161.419 67L161.419 99.25"></path></g><g class="vf-stem" id="vf-auto1427" pointer-events="bounding-box"><path stroke-width="1.5" fill="none" d="M201.406 67L201.406 99.25"></path></g><g class="vf-beam" id="vf-auto1434"><path stroke="none" d="M22 100L22 95L201.656 95L201.656 100Z"></path><path stroke="none" d="M80.694 92.5L80.694 87.5L201.656 87.5L201.656 92.5Z"></path></g>
</svg>