<svg xmlns="http://www.w3.org/2000/svg" width="240" height="120" viewBox="0 0 240 120">
<style>path[fill="none"]{stroke:#000;}</style>
<g class="vf-stavenote" id="vf-auto1042"><g class="vf-stem" id="vf-auto1043" pointer-events="bounding-box"><path stroke-width="1.5" fill="none" d="M22.75 67L22.75 100"></path></g><g class="vf-notehead" id="vf-auto1046" pointer-events="bounding-box"><path stroke="none" d="M25.931 70.054C29.525 70.054,33.934 66.741,33.934 63.315C33.934 61.237,32.305 59.946,30.003 59.946C25.566 59.946,22 63.231,22 66.685C22 68.791,23.741 70.054,25.931 70.054"></path></g></g><g class="vf-stavenote" id="vf-auto1047"><g class="vf-stem" id="vf-auto1048" pointer-events="bounding-box"><path stroke-width="1.5" fill="none" d="M151.879 67L151.879 97"></path></g><g class="vf-notehead" id="vf-auto1053" pointer-events="bounding-box"><path stroke="none" d="M155.061 70.054C158.655 70.054,163.063 66.741,163.063 63.315C163.063 61.237,161.435 59.946,159.132 59.946C154.696 59.946,151.129 63.231,151.129 66.685C151.129 68.791,152.87 70.054,155.061 70.054"></path></g><path stroke="none" d="M160.845 71.28C161.407 72.965,161.688 74.987,161.688 76.812C161.688 79.199,160.677 82.597,160.059 83.973C158.571 87.37,156.549 90.628,151.129 92.453L151.129 101.972C151.129 102.365,151.466 102.562,151.775 102.562C152.14 102.562,152.674 102.337,152.758 101.663C153.432 97.844,156.437 94.306,158.486 91.133C161.042 87.118,163.513 82.316,163.513 77.262C163.513 74.088,162.698 71.224,162.361 69.933C162.249 69.483,161.996 69.315,161.716 69.315C161.126 69.315,160.424 70.101,160.845 71.28"></path></g>
</svg>