<svg xmlns="http://www.w3.org/2000/svg" width="240" height="120" viewBox="0 0 240 120">
<style>path[fill="none"]{stroke:#000;}</style>
<g class="vf-stavenote" id="vf-auto1159"><g class="vf-stem" id="vf-auto1160" pointer-events="bounding-box"><path stroke-width="1.5" fill="none" d="M22.75 67L22.75 100"></path></g><g class="vf-notehead" id="vf-auto1163" pointer-events="bounding-box"><path stroke="none" d="M25.931 70.054C29.525 70.054,33.934 66.741,33.934 63.315C33.934 61.237,32.305 59.946,30.003 59.946C25.566 59.946,22 63.231,22 66.685C22 68.791,23.741 70.054,25.931 70.054"></path></g></g><g class="vf-stavenote" id="vf-auto1164"><g class="vf-notehead" id="vf-auto1167" pointer-events="bounding-box"><path stroke="none" d="M157.872 60.676C157.872 59.187,156.665 57.952,155.148 57.952C153.66 57.952,152.453 59.187,152.453 60.676C152.453 61.518,152.93 62.248,153.548 62.726C154.194 63.175,154.952 63.428,155.738 63.428C156.3 63.428,156.861 63.315,157.311 63.147C157.872 62.978,158.237 62.81,158.771 62.529C158.855 62.501,158.911 62.501,158.967 62.501C159.136 62.501,159.164 62.641,159.164 62.866C159.164 62.978,159.164 63.147,159.136 63.315C158.995 63.905,156.103 71.964,155.373 74.631C155.373 75.109,156.3 75.137,156.524 75.137C156.974 75.137,157.535 75.081,157.956 74.744C158.069 74.66,162.028 60.479,162.028 60.479C162.196 59.749,162.393 59.103,162.449 58.907C162.449 58.485,162.028 58.289,161.944 58.261C161.888 58.261,161.747 58.261,161.523 58.401C161.214 58.654,159.192 61.069,157.872 61.069"></path></g></g>
</svg>