<svg xmlns="http://www.w3.org/2000/svg" width="240" height="120" viewBox="0 0 240 120">
<style>path[fill="none"]{stroke:#000;}</style>
<g class="vf-stavenote" id="vf-auto1185"><g class="vf-notehead" id="vf-auto1191" pointer-events="bounding-box"><path stroke="none" d="M25.931 70.054C29.525 70.054,33.934 66.741,33.934 63.315C33.934 61.237,32.305 59.946,30.003 59.946C25.566 59.946,22 63.231,22 66.685C22 68.791,23.741 70.054,25.931 70.054"></path></g></g><g class="vf-stavenote" id="vf-auto1193"><g class="vf-notehead" id="vf-auto1199" pointer-events="bounding-box"><path stroke="none" d="M61.861 70.054C65.455 70.054,69.864 66.741,69.864 63.315C69.864 61.237,68.235 59.946,65.932 59.946C61.496 59.946,57.93 63.231,57.93 66.685C57.93 68.791,59.67 70.054,61.861 70.054"></path></g></g><g class="vf-stavenote" id="vf-auto1201"><g class="vf-notehead" id="vf-auto1207" pointer-events="bounding-box"><path stroke="none" d="M97.79 70.054C101.384 70.054,105.793 66.741,105.793 63.315C105.793 61.237,104.164 59.946,101.862 59.946C97.425 59.946,93.859 63.231,93.859 66.685C93.859 68.791,95.6 70.054,97.79 70.054"></path></g></g><g class="vf-stavenote" id="vf-auto1209"><g class="vf-notehead" id="vf-auto1215" pointer-events="bounding-box"><path stroke="none" d="M133.72 70.054C137.314 70.054,141.723 66.741,141.723 63.315C141.723 61.237,140.094 59.946,137.791 59.946C133.355 59.946,129.789 63.231,129.789 66.685C129.789 68.791,131.529 70.054,133.72 70.054"></path></g></g><g class="vf-stavenote" id="vf-auto1217"><g class="vf-notehead" id="vf-auto1223" pointer-events="bounding-box"><path stroke="none" d="M169.649 70.054C173.243 70.054,177.652 66.741,177.652 63.315C177.652 61.237,176.023 59.946,173.721 59.946C169.284 59.946,165.718 63.231,165.718 66.685C165.718 68.791,167.459 70.054,169.649 70.054"></path></g></g><g class="vf-stavenote" id="vf-auto1225"><g class="vf-notehead" id="vf-auto1231" pointer-events="bounding-box"><path stroke="none" d="M205.579 70.054C209.173 70.054,213.581 66.741,213.581 63.315C213.581 61.237,211.953 59.946,209.65 59.946C205.214 59.946,201.647 63.231,201.647 66.685C201.647 68.791,203.388 70.054,205.579 70.054"></path></g></g><g class="vf-stem" id="vf-auto1186" pointer-events="bounding-box"><path stroke-width="1.5" fill="none" d="M22.75 67L22.75 99.25"></path></g><g class="vf-stem" id="vf-auto1194" pointer-events="bounding-box"><path stroke-width="1.5" fill="none" d="M58.68 67L58.68 99.25"></path></g><g class="vf-stem" id="vf-auto1202" pointer-events="bounding-box"><path stroke-width="1.5" fill="none" d="M94.609 67L94.609 99.25"></path></g><g class="vf-stem" id="vf-auto1210" pointer-events="bounding-box"><path stroke-width="1.5" fill="none" d="M130.539 67L130.539 99.25"></path></g><g class="vf-stem" id="vf-auto1218" pointer-events="bounding-box"><path stroke-width="1.5" fill="none" d="M166.468 67L166.468 99.25"></path></g><g class="vf-stem" id="vf-auto1226" pointer-events="bounding-box"><path stroke-width="1.5" fill="none" d="M202.397 67L202.397 99.25"></path></g><g class="vf-beam" id="vf-auto1233"><path stroke="none" d="M22 100L22 95L202.647 95L202.647 100Z"></path><path stroke="none" d="M22 92.5L22 87.5L202.647 87.5L202.647 92.5Z"></path></g>
</svg>