<svg xmlns="http://www.w3.org/2000/svg" width="240" height="120" viewBox="0 0 240 120">
<style>path[fill="none"]{stroke:#000;}</style>
<g class="vf-stavenote" id="vf-auto2116"><g class="vf-stem" id="vf-auto2117" pointer-events="bounding-box"><path stroke-width="1.5" fill="none" d="M22.75 67L22.75 97"></path></g><g class="vf-notehead" id="vf-auto2122" pointer-events="bounding-box"><path stroke="none" d="M25.931 70.054C29.525 70.054,33.934 66.741,33.934 63.315C33.934 61.237,32.305 59.946,30.003 59.946C25.566 59.946,22 63.231,22 66.685C22 68.791,23.741 70.054,25.931 70.054"></path></g><path stroke="none" d="M31.716 70.213C32.305 73.611,32.305 77.29,30.761 80.435C27.981 86.107,24.696 86.219,22.197 86.303L22 86.303L22 101.972C22 102.168,22.281 102.365,22.674 102.365C22.983 102.365,23.404 102.281,23.488 101.832C24.471 95.598,32.446 93.885,33.4 87.511C33.485 87.09,33.513 86.584,33.513 86.079C33.513 83.608,32.642 81.165,32.502 80.94C32.474 80.856,32.474 80.772,32.474 80.659C32.474 80.491,32.502 80.406,32.502 80.294C33.962 77.262,34.018 73.302,33.372 70.045C33.148 69.118,32.867 69.174,32.39 69.174C31.912 69.203,31.575 69.54,31.716 70.213M31.126 83.551C31.351 83.551,31.631 83.692,31.66 83.832C31.856 84.141,31.856 84.534,31.94 84.843C31.996 85.152,31.996 85.433,31.996 85.657C31.996 87.005,31.631 88.213,30.901 89.252C29.554 91.245,26.97 93.52,24.499 93.52L24.19 93.52C23.853 93.52,23.629 93.295,23.629 93.099C23.629 93.071,23.629 93.014,23.657 92.986C24.499 89.673,26.774 88.746,28.683 86.5C29.525 85.573,30.199 84.787,30.845 83.72C30.929 83.608,31.014 83.551,31.126 83.551"></path></g><g class="vf-stavenote" id="vf-auto2124"><g class="vf-notehead" id="vf-auto2127" pointer-events="bounding-box"><path stroke="none" d="M93.446 60.507C93.446 58.963,92.21 57.755,90.694 57.755C89.178 57.755,87.942 58.963,87.942 60.507C87.942 62.164,89.627 63.259,91.172 63.259C92.267 63.259,93.39 62.894,94.316 62.36C94.457 62.332,94.513 62.304,94.597 62.304C94.738 62.304,94.794 62.36,94.794 62.585C94.794 63.231,92.744 69.24,92.463 69.858C92.126 70.616,91.059 71.093,90.47 71.093C90.526 70.953,90.526 70.813,90.526 70.7C90.526 69.156,89.262 67.948,87.774 67.948C86.229 67.948,85.022 69.156,85.022 70.7C85.022 72.357,86.707 73.452,88.251 73.452C89.318 73.452,90.357 73.087,91.284 72.61C91.368 72.61,91.452 72.694,91.452 72.834L91.424 72.89C91.424 72.919,91.424 72.919,91.424 72.919L87.577 84.375C87.577 84.375,87.577 84.403,87.577 84.403L87.521 84.459C87.521 84.824,87.886 85.218,88.785 85.218C89.964 85.218,90.161 84.74,90.329 84.291L95.018 68.875C96.057 65.449,96.816 62.726,96.816 62.726C96.816 62.726,97.826 59.187,97.911 58.654C97.911 58.57,97.967 58.542,97.967 58.485C97.967 58.261,97.63 58.092,97.546 58.036C97.349 58.036,97.237 58.12,97.124 58.205C96.816 58.457,94.794 60.872,93.446 60.928"></path></g></g><g class="vf-stavenote" id="vf-auto2128"><g class="vf-stem" id="vf-auto2129" pointer-events="bounding-box"><path stroke-width="1.5" fill="none" d="M148.794 67L148.794 97"></path></g><g class="vf-notehead" id="vf-auto2134" pointer-events="bounding-box"><path stroke="none" d="M151.975 70.054C155.569 70.054,159.978 66.741,159.978 63.315C159.978 61.237,158.349 59.946,156.047 59.946C151.61 59.946,148.044 63.231,148.044 66.685C148.044 68.791,149.785 70.054,151.975 70.054"></path></g><path stroke="none" d="M157.76 70.213C158.349 73.611,158.349 77.29,156.805 80.435C154.025 86.107,150.74 86.219,148.241 86.303L148.044 86.303L148.044 101.972C148.044 102.168,148.325 102.365,148.718 102.365C149.027 102.365,149.448 102.281,149.532 101.832C150.515 95.598,158.49 93.885,159.444 87.511C159.529 87.09,159.557 86.584,159.557 86.079C159.557 83.608,158.686 81.165,158.546 80.94C158.518 80.856,158.518 80.772,158.518 80.659C158.518 80.491,158.546 80.406,158.546 80.294C160.006 77.262,160.062 73.302,159.416 70.045C159.192 69.118,158.911 69.174,158.434 69.174C157.956 69.203,157.619 69.54,157.76 70.213M157.17 83.551C157.395 83.551,157.675 83.692,157.704 83.832C157.9 84.141,157.9 84.534,157.984 84.843C158.04 85.152,158.04 85.433,158.04 85.657C158.04 87.005,157.675 88.213,156.945 89.252C155.598 91.245,153.014 93.52,150.543 93.52L150.234 93.52C149.897 93.52,149.673 93.295,149.673 93.099C149.673 93.071,149.673 93.014,149.701 92.986C150.543 89.673,152.818 88.746,154.727 86.5C155.569 85.573,156.243 84.787,156.889 83.72C156.973 83.608,157.058 83.551,157.17 83.551"></path></g>
</svg>