<svg xmlns="http://www.w3.org/2000/svg" width="240" height="120" viewBox="0 0 240 120">
<style>path[fill="none"]{stroke:#000;}</style>
<g class="vf-stavenote" id="vf-auto2245"><g class="vf-notehead" id="vf-auto2248" pointer-events="bounding-box"><path stroke="none" d="M30.424 60.507C30.424 58.963,29.188 57.755,27.672 57.755C26.156 57.755,24.92 58.963,24.92 60.507C24.92 62.164,26.605 63.259,28.15 63.259C29.245 63.259,30.368 62.894,31.294 62.36C31.435 62.332,31.491 62.304,31.575 62.304C31.716 62.304,31.772 62.36,31.772 62.585C31.772 63.231,29.722 69.24,29.441 69.858C29.104 70.616,28.037 71.093,27.448 71.093C27.504 70.953,27.504 70.813,27.504 70.7C27.504 69.156,26.24 67.948,24.752 67.948C23.207 67.948,22 69.156,22 70.7C22 72.357,23.685 73.452,25.229 73.452C26.296 73.452,27.335 73.087,28.262 72.61C28.346 72.61,28.43 72.694,28.43 72.834L28.402 72.89C28.402 72.919,28.402 72.919,28.402 72.919L24.555 84.375C24.555 84.375,24.555 84.403,24.555 84.403L24.499 84.459C24.499 84.824,24.864 85.218,25.763 85.218C26.942 85.218,27.139 84.74,27.307 84.291L31.996 68.875C33.035 65.449,33.794 62.726,33.794 62.726C33.794 62.726,34.804 59.187,34.889 58.654C34.889 58.57,34.945 58.542,34.945 58.485C34.945 58.261,34.608 58.092,34.524 58.036C34.327 58.036,34.215 58.12,34.102 58.205C33.794 58.457,31.772 60.872,30.424 60.928"></path></g></g><g class="vf-stavenote" id="vf-auto2249"><g class="vf-notehead" id="vf-auto2265" pointer-events="bounding-box"><path stroke="none" d="M88.953 70.054C92.547 70.054,96.956 66.741,96.956 63.315C96.956 61.237,95.327 59.946,93.025 59.946C88.588 59.946,85.022 63.231,85.022 66.685C85.022 68.791,86.763 70.054,88.953 70.054"></path></g></g><g class="vf-stavenote" id="vf-auto2257"><g class="vf-notehead" id="vf-auto2267" pointer-events="bounding-box"><path stroke="none" d="M151.975 70.054C155.569 70.054,159.978 66.741,159.978 63.315C159.978 61.237,158.349 59.946,156.047 59.946C151.61 59.946,148.044 63.231,148.044 66.685C148.044 68.791,149.785 70.054,151.975 70.054"></path></g></g><g class="vf-stem" id="vf-auto2250" pointer-events="bounding-box"><path stroke-width="1.5" fill="none" d="M85.772 67L85.772 99.25"></path></g><g class="vf-stem" id="vf-auto2258" pointer-events="bounding-box"><path stroke-width="1.5" fill="none" d="M148.794 67L148.794 99.25"></path></g><g class="vf-beam" id="vf-auto2269"><path stroke="none" d="M85.022 100L85.022 95L149.044 95L149.044 100Z"></path><path stroke="none" d="M85.022 92.5L85.022 87.5L149.044 87.5L149.044 92.5Z"></path></g>
</svg>