<svg xmlns="http://www.w3.org/2000/svg" width="240" height="120" viewBox="0 0 240 120">
<style>path[fill="none"]{stroke:#000;}</style>
<g class="vf-stavenote" id="vf-auto2183"><g class="vf-notehead" id="vf-auto2199" pointer-events="bounding-box"><path stroke="none" d="M25.931 70.054C29.525 70.054,33.934 66.741,33.934 63.315C33.934 61.237,32.305 59.946,30.003 59.946C25.566 59.946,22 63.231,22 66.685C22 68.791,23.741 70.054,25.931 70.054"></path></g></g><g class="vf-stavenote" id="vf-auto2191"><g class="vf-notehead" id="vf-auto2201" pointer-events="bounding-box"><path stroke="none" d="M85.868 70.054C89.462 70.054,93.871 66.741,93.871 63.315C93.871 61.237,92.242 59.946,89.939 59.946C85.503 59.946,81.937 63.231,81.937 66.685C81.937 68.791,83.678 70.054,85.868 70.054"></path></g></g><g class="vf-stem" id="vf-auto2184" pointer-events="bounding-box"><path stroke-width="1.5" fill="none" d="M22.75 67L22.75 99.25"></path></g><g class="vf-stem" id="vf-auto2192" pointer-events="bounding-box"><path stroke-width="1.5" fill="none" d="M82.687 67L82.687 99.25"></path></g><g class="vf-beam" id="vf-auto2203"><path stroke="none" d="M22 100L22 95L82.937 95L82.937 100Z"></path><path stroke="none" d="M22 92.5L22 87.5L33 87.5L33 92.5Z"></path></g>
</svg>