<svg xmlns="http://www.w3.org/2000/svg" width="240" height="120" viewBox="0 0 240 120">
<style>path[fill="none"]{stroke:#000;}</style>
<g class="vf-stavenote" id="vf-auto2469"><g class="vf-notehead" id="vf-auto2501" pointer-events="bounding-box"><path stroke="none" d="M25.931 70.054C29.525 70.054,33.934 66.741,33.934 63.315C33.934 61.237,32.305 59.946,30.003 59.946C25.566 59.946,22 63.231,22 66.685C22 68.791,23.741 70.054,25.931 70.054"></path></g></g><g class="vf-stavenote" id="vf-auto2477"><g class="vf-notehead" id="vf-auto2503" pointer-events="bounding-box"><path stroke="none" d="M91.357 70.054C94.951 70.054,99.36 66.741,99.36 63.315C99.36 61.237,97.731 59.946,95.429 59.946C90.992 59.946,87.426 63.231,87.426 66.685C87.426 68.791,89.167 70.054,91.357 70.054"></path></g></g><g class="vf-stavenote" id="vf-auto2485"><g class="vf-notehead" id="vf-auto2505" pointer-events="bounding-box"><path stroke="none" d="M135.931 70.054C139.525 70.054,143.934 66.741,143.934 63.315C143.934 61.237,142.305 59.946,140.003 59.946C135.566 59.946,132 63.231,132 66.685C132 68.791,133.741 70.054,135.931 70.054"></path></g></g><g class="vf-stavenote" id="vf-auto2493"><g class="vf-notehead" id="vf-auto2507" pointer-events="bounding-box"><path stroke="none" d="M180.505 70.054C184.1 70.054,188.508 66.741,188.508 63.315C188.508 61.237,186.879 59.946,184.577 59.946C180.14 59.946,176.574 63.231,176.574 66.685C176.574 68.791,178.315 70.054,180.505 70.054"></path></g></g><g class="vf-stem" id="vf-auto2470" pointer-events="bounding-box"><path stroke-width="1.5" fill="none" d="M22.75 67L22.75 103"></path></g><g class="vf-stem" id="vf-auto2478" pointer-events="bounding-box"><path stroke-width="1.5" fill="none" d="M88.176 67L88.176 103"></path></g><g class="vf-stem" id="vf-auto2486" pointer-events="bounding-box"><path stroke-width="1.5" fill="none" d="M132.75 67L132.75 103"></path></g><g class="vf-stem" id="vf-auto2494" pointer-events="bounding-box"><path stroke-width="1.5" fill="none" d="M177.324 67L177.324 103"></path></g><g class="vf-beam" id="vf-auto2509"><path stroke="none" d="M22 103.75L22 98.75L177.574 98.75L177.574 103.75Z"></path><path stroke="none" d="M22 96.25L22 91.25L177.574 91.25L177.574 96.25Z"></path><path stroke="none" d="M87.426 88.75L87.426 83.75L133 83.75L133 88.75Z"></path></g>
</svg>