<svg xmlns="http://www.w3.org/2000/svg" width="240" height="120" viewBox="0 0 240 120">
<style>path[fill="none"]{stroke:#000;}</style>
<g class="vf-stavenote" id="vf-auto2298"><g class="vf-notehead" id="vf-auto2318" pointer-events="bounding-box"><path stroke="none" d="M25.931 70.054C29.525 70.054,33.934 66.741,33.934 63.315C33.934 61.237,32.305 59.946,30.003 59.946C25.566 59.946,22 63.231,22 66.685C22 68.791,23.741 70.054,25.931 70.054"></path></g></g><g class="vf-stavenote" id="vf-auto2306"><g class="vf-notehead" id="vf-auto2320" pointer-events="bounding-box"><path stroke="none" d="M88.616 70.054C92.21 70.054,96.619 66.741,96.619 63.315C96.619 61.237,94.99 59.946,92.688 59.946C88.251 59.946,84.685 63.231,84.685 66.685C84.685 68.791,86.426 70.054,88.616 70.054"></path></g></g><g class="vf-stavenote" id="vf-auto2314"><g class="vf-notehead" id="vf-auto2317" pointer-events="bounding-box"><path stroke="none" d="M155.794 60.507C155.794 58.963,154.559 57.755,153.042 57.755C151.526 57.755,150.29 58.963,150.29 60.507C150.29 62.164,151.975 63.259,153.52 63.259C154.615 63.259,155.738 62.894,156.665 62.36C156.805 62.332,156.861 62.304,156.945 62.304C157.086 62.304,157.142 62.36,157.142 62.585C157.142 63.231,155.092 69.24,154.811 69.858C154.474 70.616,153.407 71.093,152.818 71.093C152.874 70.953,152.874 70.813,152.874 70.7C152.874 69.156,151.61 67.948,150.122 67.948C148.578 67.948,147.37 69.156,147.37 70.7C147.37 72.357,149.055 73.452,150.599 73.452C151.666 73.452,152.705 73.087,153.632 72.61C153.716 72.61,153.8 72.694,153.8 72.834L153.772 72.89C153.772 72.919,153.772 72.919,153.772 72.919L149.925 84.375C149.925 84.375,149.925 84.403,149.925 84.403L149.869 84.459C149.869 84.824,150.234 85.218,151.133 85.218C152.312 85.218,152.509 84.74,152.677 84.291L157.367 68.875C158.406 65.449,159.164 62.726,159.164 62.726C159.164 62.726,160.175 59.187,160.259 58.654C160.259 58.57,160.315 58.542,160.315 58.485C160.315 58.261,159.978 58.092,159.894 58.036C159.697 58.036,159.585 58.12,159.473 58.205C159.164 58.457,157.142 60.872,155.794 60.928"></path></g></g><g class="vf-stem" id="vf-auto2299" pointer-events="bounding-box"><path stroke-width="1.5" fill="none" d="M22.75 67L22.75 99.25"></path></g><g class="vf-stem" id="vf-auto2307" pointer-events="bounding-box"><path stroke-width="1.5" fill="none" d="M85.435 67L85.435 99.25"></path></g><g class="vf-beam" id="vf-auto2322"><path stroke="none" d="M22 100L22 95L85.685 95L85.685 100Z"></path><path stroke="none" d="M22 92.5L22 87.5L85.685 87.5L85.685 92.5Z"></path></g>
</svg>