<svg xmlns="http://www.w3.org/2000/svg" width="240" height="120" viewBox="0 0 240 120">
<style>path[fill="none"]{stroke:#000;}</style>
<g class="vf-stavenote" id="vf-auto2208"><g class="vf-notehead" id="vf-auto2224" pointer-events="bounding-box"><path stroke="none" d="M25.931 70.054C29.525 70.054,33.934 66.741,33.934 63.315C33.934 61.237,32.305 59.946,30.003 59.946C25.566 59.946,22 63.231,22 66.685C22 68.791,23.741 70.054,25.931 70.054"></path></g></g><g class="vf-stavenote" id="vf-auto2216"><g class="vf-notehead" id="vf-auto2226" pointer-events="bounding-box"><path stroke="none" d="M120.464 70.054C124.058 70.054,128.467 66.741,128.467 63.315C128.467 61.237,126.838 59.946,124.536 59.946C120.099 59.946,116.533 63.231,116.533 66.685C116.533 68.791,118.274 70.054,120.464 70.054"></path></g></g><g class="vf-stem" id="vf-auto2209" pointer-events="bounding-box"><path stroke-width="1.5" fill="none" d="M22.75 67L22.75 99.25"></path></g><g class="vf-stem" id="vf-auto2217" pointer-events="bounding-box"><path stroke-width="1.5" fill="none" d="M117.283 67L117.283 99.25"></path></g><g class="vf-beam" id="vf-auto2228"><path stroke="none" d="M22 100L22 95L117.533 95L117.533 100Z"></path><path stroke="none" d="M22 92.5L22 87.5L117.533 87.5L117.533 92.5Z"></path></g><rect x="17" y="42" width="48.314" height="1" stroke="none"></rect><rect x="85.153" y="42" width="48.314" height="1" stroke="none"></rect><rect x="17" y="42" width="1" height="10" stroke="none"></rect><rect x="133.467" y="42" width="1" height="10" stroke="none"></rect><path stroke="none" d="M80.524 44.007C80.524 43.721,80.406 43.67,80.237 43.67C80.035 43.67,79.968 43.771,79.917 43.94L79.9 43.957C79.648 44.563,79.462 45.035,78.957 45.035C78.822 45.035,78.704 45.001,78.536 44.951C78.216 44.833,78.047 44.816,77.811 44.681C77.323 44.496,76.177 44.108,75.183 44.108C74.88 44.108,74.56 44.159,74.29 44.243C74.829 43.384,76.885 42.642,77.424 42.508C79.125 42.036,80.642 41.345,80.642 39.323C80.642 36.746,78.131 35.634,75.874 35.634C74.172 35.634,72.673 35.785,71.476 37.167C71.072 37.672,70.802 38.279,70.802 38.936C70.802 39.273,70.87 39.61,71.022 39.98C71.375 40.739,72.133 41.311,73.01 41.311C74.492 41.311,74.711 39.778,74.711 39.172C74.711 37.723,73.026 37.655,73.026 37.167C73.077 36.83,73.515 36.24,74.947 36.24C77.104 36.24,77.137 37.874,77.137 38.565C77.137 40.789,75.318 42.457,73.566 43.518C72.235 44.378,71.291 45.557,70.87 47.141L70.853 47.208C70.853 47.528,71.123 48.034,71.476 48.034C72.016 48.034,72.302 46.551,73.734 46.551C74.711 46.551,75.065 47.865,77.222 47.865C78.266 47.865,80.136 47.764,80.524 44.007"></path>
</svg>