<svg xmlns="http://www.w3.org/2000/svg" width="240" height="120" viewBox="0 0 240 120">
<style>path[fill="none"]{stroke:#000;}</style>
<g class="vf-stavenote" id="vf-auto2158"><g class="vf-notehead" id="vf-auto2174" pointer-events="bounding-box"><path stroke="none" d="M25.931 70.054C29.525 70.054,33.934 66.741,33.934 63.315C33.934 61.237,32.305 59.946,30.003 59.946C25.566 59.946,22 63.231,22 66.685C22 68.791,23.741 70.054,25.931 70.054"></path></g></g><g class="vf-stavenote" id="vf-auto2166"><g class="vf-notehead" id="vf-auto2176" pointer-events="bounding-box"><path stroke="none" d="M155.061 70.054C158.655 70.054,163.063 66.741,163.063 63.315C163.063 61.237,161.435 59.946,159.132 59.946C154.696 59.946,151.129 63.231,151.129 66.685C151.129 68.791,152.87 70.054,155.061 70.054"></path></g></g><g class="vf-stem" id="vf-auto2159" pointer-events="bounding-box"><path stroke-width="1.5" fill="none" d="M22.75 67L22.75 99.25"></path></g><g class="vf-stem" id="vf-auto2167" pointer-events="bounding-box"><path stroke-width="1.5" fill="none" d="M151.879 67L151.879 99.25"></path></g><g class="vf-beam" id="vf-auto2178"><path stroke="none" d="M22 100L22 95L152.129 95L152.129 100Z"></path><path stroke="none" d="M151.129 92.5L151.129 87.5L142.129 87.5L142.129 92.5Z"></path></g>
</svg>