<svg xmlns="http://www.w3.org/2000/svg" width="240" height="120" viewBox="0 0 240 120">
<style>path[fill="none"]{stroke:#000;}</style>
<g class="vf-stavenote" id="vf-auto2165"><g class="vf-stem" id="vf-auto2166" pointer-events="bounding-box"><path stroke-width="1.5" fill="none" d="M22.75 67L22.75 97"></path></g><g class="vf-notehead" id="vf-auto2171" pointer-events="bounding-box"><path stroke="none" d="M25.931 70.054C29.525 70.054,33.934 66.741,33.934 63.315C33.934 61.237,32.305 59.946,30.003 59.946C25.566 59.946,22 63.231,22 66.685C22 68.791,23.741 70.054,25.931 70.054"></path></g><path stroke="none" d="M31.716 71.28C32.277 72.965,32.558 74.987,32.558 76.812C32.558 79.199,31.547 82.597,30.929 83.973C29.441 87.37,27.419 90.628,22 92.453L22 101.972C22 102.365,22.337 102.562,22.646 102.562C23.011 102.562,23.544 102.337,23.629 101.663C24.303 97.844,27.307 94.306,29.357 91.133C31.912 87.118,34.383 82.316,34.383 77.262C34.383 74.088,33.569 71.224,33.232 69.933C33.12 69.483,32.867 69.315,32.586 69.315C31.996 69.315,31.294 70.101,31.716 71.28"></path></g><g class="vf-stavenote" id="vf-auto2173"><g class="vf-notehead" id="vf-auto2176" pointer-events="bounding-box"><path stroke="none" d="M158.863 60.507C158.863 58.963,157.627 57.755,156.111 57.755C154.595 57.755,153.359 58.963,153.359 60.507C153.359 62.164,155.044 63.259,156.589 63.259C157.684 63.259,158.807 62.894,159.733 62.36C159.874 62.332,159.93 62.304,160.014 62.304C160.155 62.304,160.211 62.36,160.211 62.585C160.211 63.231,158.161 69.24,157.88 69.858C157.543 70.616,156.476 71.093,155.887 71.093C155.943 70.953,155.943 70.813,155.943 70.7C155.943 69.156,154.679 67.948,153.191 67.948C151.646 67.948,150.439 69.156,150.439 70.7C150.439 72.357,152.124 73.452,153.668 73.452C154.735 73.452,155.774 73.087,156.701 72.61C156.785 72.61,156.869 72.694,156.869 72.834L156.841 72.89C156.841 72.919,156.841 72.919,156.841 72.919L152.994 84.375C152.994 84.375,152.994 84.403,152.994 84.403L152.938 84.459C152.938 84.824,153.303 85.218,154.202 85.218C155.381 85.218,155.578 84.74,155.746 84.291L160.435 68.875C161.474 65.449,162.233 62.726,162.233 62.726C162.233 62.726,163.243 59.187,163.328 58.654C163.328 58.57,163.384 58.542,163.384 58.485C163.384 58.261,163.047 58.092,162.963 58.036C162.766 58.036,162.654 58.12,162.541 58.205C162.233 58.457,160.211 60.872,158.863 60.928"></path></g></g>
</svg>