<svg xmlns="http://www.w3.org/2000/svg" width="240" height="120" viewBox="0 0 240 120">
<style>path[fill="none"]{stroke:#000;}</style>
<g class="vf-stavenote" id="vf-auto2669"><g class="vf-notehead" id="vf-auto2693" pointer-events="bounding-box"><path stroke="none" d="M25.931 70.054C29.525 70.054,33.934 66.741,33.934 63.315C33.934 61.237,32.305 59.946,30.003 59.946C25.566 59.946,22 63.231,22 66.685C22 68.791,23.741 70.054,25.931 70.054"></path></g></g><g class="vf-stavenote" id="vf-auto2677"><g class="vf-notehead" id="vf-auto2695" pointer-events="bounding-box"><path stroke="none" d="M161.121 70.054C164.715 70.054,169.123 66.741,169.123 63.315C169.123 61.237,167.495 59.946,165.192 59.946C160.755 59.946,157.189 63.231,157.189 66.685C157.189 68.791,158.93 70.054,161.121 70.054"></path></g></g><g class="vf-stavenote" id="vf-auto2685"><g class="vf-notehead" id="vf-auto2697" pointer-events="bounding-box"><path stroke="none" d="M203.871 70.054C207.465 70.054,211.874 66.741,211.874 63.315C211.874 61.237,210.245 59.946,207.943 59.946C203.506 59.946,199.94 63.231,199.94 66.685C199.94 68.791,201.681 70.054,203.871 70.054"></path></g></g><g class="vf-stem" id="vf-auto2670" pointer-events="bounding-box"><path stroke-width="1.5" fill="none" d="M22.75 67L22.75 104.25"></path></g><g class="vf-stem" id="vf-auto2678" pointer-events="bounding-box"><path stroke-width="1.5" fill="none" d="M157.939 67L157.939 104.25"></path></g><g class="vf-stem" id="vf-auto2686" pointer-events="bounding-box"><path stroke-width="1.5" fill="none" d="M200.69 67L200.69 104.25"></path></g><g class="vf-beam" id="vf-auto2699"><path stroke="none" d="M22 105L22 100L200.94 100L200.94 105Z"></path><path stroke="none" d="M157.189 97.5L157.189 92.5L200.94 92.5L200.94 97.5Z"></path><path stroke="none" d="M157.189 90L157.189 85L200.94 85L200.94 90Z"></path></g>
</svg>