<svg xmlns="http://www.w3.org/2000/svg" width="240" height="120" viewBox="0 0 240 120">
<style>path[fill="none"]{stroke:#000;}</style>
<g class="vf-stavenote" id="vf-auto2361"><g class="vf-notehead" id="vf-auto2367" pointer-events="bounding-box"><path stroke="none" d="M25.931 70.054C29.525 70.054,33.934 66.741,33.934 63.315C33.934 61.237,32.305 59.946,30.003 59.946C25.566 59.946,22 63.231,22 66.685C22 68.791,23.741 70.054,25.931 70.054"></path></g></g><g class="vf-stavenote" id="vf-auto2369"><g class="vf-notehead" id="vf-auto2375" pointer-events="bounding-box"><path stroke="none" d="M66.167 70.054C69.761 70.054,74.17 66.741,74.17 63.315C74.17 61.237,72.541 59.946,70.238 59.946C65.802 59.946,62.236 63.231,62.236 66.685C62.236 68.791,63.977 70.054,66.167 70.054"></path></g></g><g class="vf-stavenote" id="vf-auto2377"><g class="vf-notehead" id="vf-auto2383" pointer-events="bounding-box"><path stroke="none" d="M106.402 70.054C109.997 70.054,114.405 66.741,114.405 63.315C114.405 61.237,112.776 59.946,110.474 59.946C106.037 59.946,102.471 63.231,102.471 66.685C102.471 68.791,104.212 70.054,106.402 70.054"></path></g></g><g class="vf-stavenote" id="vf-auto2385"><g class="vf-notehead" id="vf-auto2391" pointer-events="bounding-box"><path stroke="none" d="M146.638 70.054C150.232 70.054,154.641 66.741,154.641 63.315C154.641 61.237,153.012 59.946,150.709 59.946C146.273 59.946,142.707 63.231,142.707 66.685C142.707 68.791,144.448 70.054,146.638 70.054"></path></g></g><g class="vf-stavenote" id="vf-auto2393"><g class="vf-notehead" id="vf-auto2399" pointer-events="bounding-box"><path stroke="none" d="M186.873 70.054C190.468 70.054,194.876 66.741,194.876 63.315C194.876 61.237,193.248 59.946,190.945 59.946C186.508 59.946,182.942 63.231,182.942 66.685C182.942 68.791,184.683 70.054,186.873 70.054"></path></g></g><g class="vf-stem" id="vf-auto2362" pointer-events="bounding-box"><path stroke-width="1.5" fill="none" d="M22.75 67L22.75 106.75"></path></g><g class="vf-stem" id="vf-auto2370" pointer-events="bounding-box"><path stroke-width="1.5" fill="none" d="M62.986 67L62.986 106.75"></path></g><g class="vf-stem" id="vf-auto2378" pointer-events="bounding-box"><path stroke-width="1.5" fill="none" d="M103.221 67L103.221 106.75"></path></g><g class="vf-stem" id="vf-auto2386" pointer-events="bounding-box"><path stroke-width="1.5" fill="none" d="M143.457 67L143.457 106.75"></path></g><g class="vf-stem" id="vf-auto2394" pointer-events="bounding-box"><path stroke-width="1.5" fill="none" d="M183.692 67L183.692 106.75"></path></g><g class="vf-beam" id="vf-auto2401"><path stroke="none" d="M22 107.5L22 102.5L183.942 102.5L183.942 107.5Z"></path><path stroke="none" d="M22 100L22 95L183.942 95L183.942 100Z"></path><path stroke="none" d="M22 92.5L22 87.5L143.707 87.5L143.707 92.5Z"></path></g>
</svg>