<svg xmlns="http://www.w3.org/2000/svg" width="240" height="120" viewBox="0 0 240 120">
<style>path[fill="none"]{stroke:#000;}</style>
<g class="vf-stavenote" id="vf-auto2424"><g class="vf-notehead" id="vf-auto2456" pointer-events="bounding-box"><path stroke="none" d="M25.931 70.054C29.525 70.054,33.934 66.741,33.934 63.315C33.934 61.237,32.305 59.946,30.003 59.946C25.566 59.946,22 63.231,22 66.685C22 68.791,23.741 70.054,25.931 70.054"></path></g></g><g class="vf-stavenote" id="vf-auto2432"><g class="vf-notehead" id="vf-auto2458" pointer-events="bounding-box"><path stroke="none" d="M70.505 70.054C74.1 70.054,78.508 66.741,78.508 63.315C78.508 61.237,76.879 59.946,74.577 59.946C70.14 59.946,66.574 63.231,66.574 66.685C66.574 68.791,68.315 70.054,70.505 70.054"></path></g></g><g class="vf-stavenote" id="vf-auto2440"><g class="vf-notehead" id="vf-auto2460" pointer-events="bounding-box"><path stroke="none" d="M115.079 70.054C118.674 70.054,123.082 66.741,123.082 63.315C123.082 61.237,121.454 59.946,119.151 59.946C114.714 59.946,111.148 63.231,111.148 66.685C111.148 68.791,112.889 70.054,115.079 70.054"></path></g></g><g class="vf-stavenote" id="vf-auto2448"><g class="vf-notehead" id="vf-auto2462" pointer-events="bounding-box"><path stroke="none" d="M180.505 70.054C184.1 70.054,188.508 66.741,188.508 63.315C188.508 61.237,186.879 59.946,184.577 59.946C180.14 59.946,176.574 63.231,176.574 66.685C176.574 68.791,178.315 70.054,180.505 70.054"></path></g></g><g class="vf-stem" id="vf-auto2425" pointer-events="bounding-box"><path stroke-width="1.5" fill="none" d="M22.75 67L22.75 103"></path></g><g class="vf-stem" id="vf-auto2433" pointer-events="bounding-box"><path stroke-width="1.5" fill="none" d="M67.324 67L67.324 103"></path></g><g class="vf-stem" id="vf-auto2441" pointer-events="bounding-box"><path stroke-width="1.5" fill="none" d="M111.898 67L111.898 103"></path></g><g class="vf-stem" id="vf-auto2449" pointer-events="bounding-box"><path stroke-width="1.5" fill="none" d="M177.324 67L177.324 103"></path></g><g class="vf-beam" id="vf-auto2464"><path stroke="none" d="M22 103.75L22 98.75L177.574 98.75L177.574 103.75Z"></path><path stroke="none" d="M22 96.25L22 91.25L177.574 91.25L177.574 96.25Z"></path><path stroke="none" d="M22 88.75L22 83.75L67.574 83.75L67.574 88.75Z"></path></g>
</svg>