<svg xmlns="http://www.w3.org/2000/svg" width="240" height="120" viewBox="0 0 240 120">
<style>path[fill="none"]{stroke:#000;}</style>
<g class="vf-stavenote" id="vf-auto1987"><g class="vf-notehead" id="vf-auto1993" pointer-events="bounding-box"><path stroke="none" d="M25.931 70.054C29.525 70.054,33.934 66.741,33.934 63.315C33.934 61.237,32.305 59.946,30.003 59.946C25.566 59.946,22 63.231,22 66.685C22 68.791,23.741 70.054,25.931 70.054"></path></g></g><g class="vf-stavenote" id="vf-auto1995"><g class="vf-notehead" id="vf-auto2001" pointer-events="bounding-box"><path stroke="none" d="M88.953 70.054C92.547 70.054,96.956 66.741,96.956 63.315C96.956 61.237,95.327 59.946,93.025 59.946C88.588 59.946,85.022 63.231,85.022 66.685C85.022 68.791,86.763 70.054,88.953 70.054"></path></g></g><g class="vf-stavenote" id="vf-auto2003"><g class="vf-notehead" id="vf-auto2009" pointer-events="bounding-box"><path stroke="none" d="M151.975 70.054C155.569 70.054,159.978 66.741,159.978 63.315C159.978 61.237,158.349 59.946,156.047 59.946C151.61 59.946,148.044 63.231,148.044 66.685C148.044 68.791,149.785 70.054,151.975 70.054"></path></g></g><g class="vf-stem" id="vf-auto1988" pointer-events="bounding-box"><path stroke-width="1.5" fill="none" d="M22.75 67L22.75 99.25"></path></g><g class="vf-stem" id="vf-auto1996" pointer-events="bounding-box"><path stroke-width="1.5" fill="none" d="M85.772 67L85.772 99.25"></path></g><g class="vf-stem" id="vf-auto2004" pointer-events="bounding-box"><path stroke-width="1.5" fill="none" d="M148.794 67L148.794 99.25"></path></g><g class="vf-beam" id="vf-auto2011"><path stroke="none" d="M22 100L22 95L149.044 95L149.044 100Z"></path><path stroke="none" d="M22 92.5L22 87.5L149.044 87.5L149.044 92.5Z"></path></g>
</svg>